G75*
G70*
%OFA0B0*%
%FSLAX24Y24*%
%IPPOS*%
%LPD*%
%AMOC8*
5,1,8,0,0,1.08239X$1,22.5*
%
%ADD10C,0.0000*%
%ADD11C,0.0700*%
%ADD12C,0.0740*%
%ADD13C,0.0160*%
%ADD14C,0.0396*%
%ADD15C,0.0100*%
%ADD16C,0.0945*%
D10*
X002197Y001169D02*
X018827Y001169D01*
X018828Y001169D02*
X018893Y001175D01*
X018958Y001185D01*
X019022Y001198D01*
X019085Y001215D01*
X019147Y001236D01*
X019208Y001260D01*
X019267Y001287D01*
X019325Y001318D01*
X019381Y001352D01*
X019435Y001389D01*
X019487Y001429D01*
X019537Y001472D01*
X019584Y001517D01*
X019628Y001565D01*
X019670Y001616D01*
X019708Y001669D01*
X019744Y001723D01*
X019777Y001780D01*
X019806Y001839D01*
X019832Y001899D01*
X019855Y001960D01*
X019874Y002023D01*
X019890Y002086D01*
X019902Y002151D01*
X019910Y002216D01*
X019915Y002281D01*
X019916Y002346D01*
X019913Y002412D01*
X019913Y018974D01*
X019911Y019037D01*
X019906Y019101D01*
X019896Y019164D01*
X019884Y019226D01*
X019867Y019287D01*
X019847Y019348D01*
X019824Y019407D01*
X019797Y019465D01*
X019767Y019520D01*
X019733Y019575D01*
X019697Y019627D01*
X019657Y019677D01*
X019615Y019724D01*
X019570Y019769D01*
X019523Y019811D01*
X019473Y019851D01*
X019421Y019887D01*
X019366Y019921D01*
X019311Y019951D01*
X019253Y019978D01*
X019194Y020001D01*
X019133Y020021D01*
X019072Y020038D01*
X019010Y020050D01*
X018947Y020060D01*
X018883Y020065D01*
X018820Y020067D01*
X002057Y020067D01*
X002057Y020066D02*
X001989Y020062D01*
X001923Y020054D01*
X001856Y020043D01*
X001791Y020028D01*
X001726Y020009D01*
X001663Y019986D01*
X001601Y019960D01*
X001540Y019931D01*
X001481Y019898D01*
X001425Y019862D01*
X001370Y019822D01*
X001317Y019780D01*
X001267Y019735D01*
X001220Y019687D01*
X001175Y019637D01*
X001134Y019584D01*
X001095Y019529D01*
X001060Y019472D01*
X001027Y019413D01*
X000998Y019352D01*
X000973Y019290D01*
X000951Y019226D01*
X000933Y019161D01*
X000918Y019096D01*
X000907Y019029D01*
X000900Y018962D01*
X000896Y018895D01*
X000897Y018828D01*
X000897Y002469D01*
X001529Y002427D02*
X001531Y002477D01*
X001537Y002527D01*
X001547Y002577D01*
X001560Y002625D01*
X001577Y002673D01*
X001598Y002719D01*
X001622Y002763D01*
X001650Y002805D01*
X001681Y002845D01*
X001715Y002882D01*
X001752Y002917D01*
X001791Y002948D01*
X001832Y002977D01*
X001876Y003002D01*
X001922Y003024D01*
X001969Y003042D01*
X002017Y003056D01*
X002066Y003067D01*
X002116Y003074D01*
X002166Y003077D01*
X002217Y003076D01*
X002267Y003071D01*
X002317Y003062D01*
X002365Y003050D01*
X002413Y003033D01*
X002459Y003013D01*
X002504Y002990D01*
X002547Y002963D01*
X002587Y002933D01*
X002625Y002900D01*
X002660Y002864D01*
X002693Y002825D01*
X002722Y002784D01*
X002748Y002741D01*
X002771Y002696D01*
X002790Y002649D01*
X002805Y002601D01*
X002817Y002552D01*
X002825Y002502D01*
X002829Y002452D01*
X002829Y002402D01*
X002825Y002352D01*
X002817Y002302D01*
X002805Y002253D01*
X002790Y002205D01*
X002771Y002158D01*
X002748Y002113D01*
X002722Y002070D01*
X002693Y002029D01*
X002660Y001990D01*
X002625Y001954D01*
X002587Y001921D01*
X002547Y001891D01*
X002504Y001864D01*
X002459Y001841D01*
X002413Y001821D01*
X002365Y001804D01*
X002317Y001792D01*
X002267Y001783D01*
X002217Y001778D01*
X002166Y001777D01*
X002116Y001780D01*
X002066Y001787D01*
X002017Y001798D01*
X001969Y001812D01*
X001922Y001830D01*
X001876Y001852D01*
X001832Y001877D01*
X001791Y001906D01*
X001752Y001937D01*
X001715Y001972D01*
X001681Y002009D01*
X001650Y002049D01*
X001622Y002091D01*
X001598Y002135D01*
X001577Y002181D01*
X001560Y002229D01*
X001547Y002277D01*
X001537Y002327D01*
X001531Y002377D01*
X001529Y002427D01*
X000897Y002469D02*
X000899Y002399D01*
X000905Y002328D01*
X000914Y002259D01*
X000927Y002190D01*
X000944Y002121D01*
X000965Y002054D01*
X000989Y001988D01*
X001017Y001923D01*
X001048Y001860D01*
X001083Y001799D01*
X001121Y001739D01*
X001162Y001682D01*
X001206Y001627D01*
X001253Y001575D01*
X001303Y001525D01*
X001355Y001478D01*
X001410Y001434D01*
X001467Y001393D01*
X001527Y001355D01*
X001588Y001320D01*
X001651Y001289D01*
X001716Y001261D01*
X001782Y001237D01*
X001849Y001216D01*
X001918Y001199D01*
X001987Y001186D01*
X002056Y001177D01*
X002127Y001171D01*
X002197Y001169D01*
X006133Y010618D02*
X006135Y010653D01*
X006141Y010688D01*
X006151Y010722D01*
X006164Y010755D01*
X006181Y010786D01*
X006202Y010814D01*
X006225Y010841D01*
X006252Y010864D01*
X006280Y010885D01*
X006311Y010902D01*
X006344Y010915D01*
X006378Y010925D01*
X006413Y010931D01*
X006448Y010933D01*
X006483Y010931D01*
X006518Y010925D01*
X006552Y010915D01*
X006585Y010902D01*
X006616Y010885D01*
X006644Y010864D01*
X006671Y010841D01*
X006694Y010814D01*
X006715Y010786D01*
X006732Y010755D01*
X006745Y010722D01*
X006755Y010688D01*
X006761Y010653D01*
X006763Y010618D01*
X006761Y010583D01*
X006755Y010548D01*
X006745Y010514D01*
X006732Y010481D01*
X006715Y010450D01*
X006694Y010422D01*
X006671Y010395D01*
X006644Y010372D01*
X006616Y010351D01*
X006585Y010334D01*
X006552Y010321D01*
X006518Y010311D01*
X006483Y010305D01*
X006448Y010303D01*
X006413Y010305D01*
X006378Y010311D01*
X006344Y010321D01*
X006311Y010334D01*
X006280Y010351D01*
X006252Y010372D01*
X006225Y010395D01*
X006202Y010422D01*
X006181Y010450D01*
X006164Y010481D01*
X006151Y010514D01*
X006141Y010548D01*
X006135Y010583D01*
X006133Y010618D01*
X001568Y018805D02*
X001570Y018855D01*
X001576Y018905D01*
X001586Y018955D01*
X001599Y019003D01*
X001616Y019051D01*
X001637Y019097D01*
X001661Y019141D01*
X001689Y019183D01*
X001720Y019223D01*
X001754Y019260D01*
X001791Y019295D01*
X001830Y019326D01*
X001871Y019355D01*
X001915Y019380D01*
X001961Y019402D01*
X002008Y019420D01*
X002056Y019434D01*
X002105Y019445D01*
X002155Y019452D01*
X002205Y019455D01*
X002256Y019454D01*
X002306Y019449D01*
X002356Y019440D01*
X002404Y019428D01*
X002452Y019411D01*
X002498Y019391D01*
X002543Y019368D01*
X002586Y019341D01*
X002626Y019311D01*
X002664Y019278D01*
X002699Y019242D01*
X002732Y019203D01*
X002761Y019162D01*
X002787Y019119D01*
X002810Y019074D01*
X002829Y019027D01*
X002844Y018979D01*
X002856Y018930D01*
X002864Y018880D01*
X002868Y018830D01*
X002868Y018780D01*
X002864Y018730D01*
X002856Y018680D01*
X002844Y018631D01*
X002829Y018583D01*
X002810Y018536D01*
X002787Y018491D01*
X002761Y018448D01*
X002732Y018407D01*
X002699Y018368D01*
X002664Y018332D01*
X002626Y018299D01*
X002586Y018269D01*
X002543Y018242D01*
X002498Y018219D01*
X002452Y018199D01*
X002404Y018182D01*
X002356Y018170D01*
X002306Y018161D01*
X002256Y018156D01*
X002205Y018155D01*
X002155Y018158D01*
X002105Y018165D01*
X002056Y018176D01*
X002008Y018190D01*
X001961Y018208D01*
X001915Y018230D01*
X001871Y018255D01*
X001830Y018284D01*
X001791Y018315D01*
X001754Y018350D01*
X001720Y018387D01*
X001689Y018427D01*
X001661Y018469D01*
X001637Y018513D01*
X001616Y018559D01*
X001599Y018607D01*
X001586Y018655D01*
X001576Y018705D01*
X001570Y018755D01*
X001568Y018805D01*
X014243Y010618D02*
X014245Y010653D01*
X014251Y010688D01*
X014261Y010722D01*
X014274Y010755D01*
X014291Y010786D01*
X014312Y010814D01*
X014335Y010841D01*
X014362Y010864D01*
X014390Y010885D01*
X014421Y010902D01*
X014454Y010915D01*
X014488Y010925D01*
X014523Y010931D01*
X014558Y010933D01*
X014593Y010931D01*
X014628Y010925D01*
X014662Y010915D01*
X014695Y010902D01*
X014726Y010885D01*
X014754Y010864D01*
X014781Y010841D01*
X014804Y010814D01*
X014825Y010786D01*
X014842Y010755D01*
X014855Y010722D01*
X014865Y010688D01*
X014871Y010653D01*
X014873Y010618D01*
X014871Y010583D01*
X014865Y010548D01*
X014855Y010514D01*
X014842Y010481D01*
X014825Y010450D01*
X014804Y010422D01*
X014781Y010395D01*
X014754Y010372D01*
X014726Y010351D01*
X014695Y010334D01*
X014662Y010321D01*
X014628Y010311D01*
X014593Y010305D01*
X014558Y010303D01*
X014523Y010305D01*
X014488Y010311D01*
X014454Y010321D01*
X014421Y010334D01*
X014390Y010351D01*
X014362Y010372D01*
X014335Y010395D01*
X014312Y010422D01*
X014291Y010450D01*
X014274Y010481D01*
X014261Y010514D01*
X014251Y010548D01*
X014245Y010583D01*
X014243Y010618D01*
X018056Y018829D02*
X018058Y018879D01*
X018064Y018929D01*
X018074Y018979D01*
X018087Y019027D01*
X018104Y019075D01*
X018125Y019121D01*
X018149Y019165D01*
X018177Y019207D01*
X018208Y019247D01*
X018242Y019284D01*
X018279Y019319D01*
X018318Y019350D01*
X018359Y019379D01*
X018403Y019404D01*
X018449Y019426D01*
X018496Y019444D01*
X018544Y019458D01*
X018593Y019469D01*
X018643Y019476D01*
X018693Y019479D01*
X018744Y019478D01*
X018794Y019473D01*
X018844Y019464D01*
X018892Y019452D01*
X018940Y019435D01*
X018986Y019415D01*
X019031Y019392D01*
X019074Y019365D01*
X019114Y019335D01*
X019152Y019302D01*
X019187Y019266D01*
X019220Y019227D01*
X019249Y019186D01*
X019275Y019143D01*
X019298Y019098D01*
X019317Y019051D01*
X019332Y019003D01*
X019344Y018954D01*
X019352Y018904D01*
X019356Y018854D01*
X019356Y018804D01*
X019352Y018754D01*
X019344Y018704D01*
X019332Y018655D01*
X019317Y018607D01*
X019298Y018560D01*
X019275Y018515D01*
X019249Y018472D01*
X019220Y018431D01*
X019187Y018392D01*
X019152Y018356D01*
X019114Y018323D01*
X019074Y018293D01*
X019031Y018266D01*
X018986Y018243D01*
X018940Y018223D01*
X018892Y018206D01*
X018844Y018194D01*
X018794Y018185D01*
X018744Y018180D01*
X018693Y018179D01*
X018643Y018182D01*
X018593Y018189D01*
X018544Y018200D01*
X018496Y018214D01*
X018449Y018232D01*
X018403Y018254D01*
X018359Y018279D01*
X018318Y018308D01*
X018279Y018339D01*
X018242Y018374D01*
X018208Y018411D01*
X018177Y018451D01*
X018149Y018493D01*
X018125Y018537D01*
X018104Y018583D01*
X018087Y018631D01*
X018074Y018679D01*
X018064Y018729D01*
X018058Y018779D01*
X018056Y018829D01*
X018056Y002372D02*
X018058Y002422D01*
X018064Y002472D01*
X018074Y002522D01*
X018087Y002570D01*
X018104Y002618D01*
X018125Y002664D01*
X018149Y002708D01*
X018177Y002750D01*
X018208Y002790D01*
X018242Y002827D01*
X018279Y002862D01*
X018318Y002893D01*
X018359Y002922D01*
X018403Y002947D01*
X018449Y002969D01*
X018496Y002987D01*
X018544Y003001D01*
X018593Y003012D01*
X018643Y003019D01*
X018693Y003022D01*
X018744Y003021D01*
X018794Y003016D01*
X018844Y003007D01*
X018892Y002995D01*
X018940Y002978D01*
X018986Y002958D01*
X019031Y002935D01*
X019074Y002908D01*
X019114Y002878D01*
X019152Y002845D01*
X019187Y002809D01*
X019220Y002770D01*
X019249Y002729D01*
X019275Y002686D01*
X019298Y002641D01*
X019317Y002594D01*
X019332Y002546D01*
X019344Y002497D01*
X019352Y002447D01*
X019356Y002397D01*
X019356Y002347D01*
X019352Y002297D01*
X019344Y002247D01*
X019332Y002198D01*
X019317Y002150D01*
X019298Y002103D01*
X019275Y002058D01*
X019249Y002015D01*
X019220Y001974D01*
X019187Y001935D01*
X019152Y001899D01*
X019114Y001866D01*
X019074Y001836D01*
X019031Y001809D01*
X018986Y001786D01*
X018940Y001766D01*
X018892Y001749D01*
X018844Y001737D01*
X018794Y001728D01*
X018744Y001723D01*
X018693Y001722D01*
X018643Y001725D01*
X018593Y001732D01*
X018544Y001743D01*
X018496Y001757D01*
X018449Y001775D01*
X018403Y001797D01*
X018359Y001822D01*
X018318Y001851D01*
X018279Y001882D01*
X018242Y001917D01*
X018208Y001954D01*
X018177Y001994D01*
X018149Y002036D01*
X018125Y002080D01*
X018104Y002126D01*
X018087Y002174D01*
X018074Y002222D01*
X018064Y002272D01*
X018058Y002322D01*
X018056Y002372D01*
D11*
X004995Y002342D03*
X004995Y003759D03*
X016238Y016441D03*
X017655Y016441D03*
X005447Y017455D03*
X004029Y017455D03*
D12*
X007098Y016900D03*
X008046Y016970D03*
X008146Y017970D03*
X008046Y018970D03*
X007098Y018040D03*
D13*
X001308Y001787D02*
X001515Y001581D01*
X001768Y001434D01*
X002051Y001359D01*
X002197Y001349D01*
X018818Y001349D01*
X018968Y001371D01*
X019255Y001486D01*
X019050Y001486D01*
X019189Y001537D02*
X019189Y001537D01*
X019445Y001752D01*
X019445Y001752D01*
X019613Y002042D01*
X019613Y002042D01*
X019671Y002372D01*
X019671Y002372D01*
X019613Y002702D01*
X019445Y002992D01*
X019189Y003208D01*
X019189Y003208D01*
X018874Y003322D01*
X018798Y003322D01*
X018706Y003322D01*
X018695Y003322D01*
X018615Y003322D01*
X018539Y003322D01*
X018224Y003208D01*
X017968Y002992D01*
X017967Y002992D02*
X017800Y002702D01*
X017742Y002372D01*
X017800Y002042D01*
X017967Y001752D01*
X018224Y001537D01*
X018224Y001537D01*
X018539Y001422D01*
X018706Y001422D01*
X018798Y001422D01*
X018874Y001422D01*
X019189Y001537D01*
X019255Y001486D02*
X019492Y001684D01*
X019656Y001946D01*
X019731Y002245D01*
X019733Y002364D01*
X019733Y002406D01*
X019728Y002474D01*
X019733Y002480D01*
X019733Y018974D01*
X019722Y019116D01*
X019633Y019388D01*
X019465Y019619D01*
X019234Y019787D01*
X018963Y019876D01*
X018820Y019887D01*
X002062Y019887D01*
X001904Y019869D01*
X001604Y019761D01*
X001352Y019565D01*
X001173Y019300D01*
X001084Y018994D01*
X001077Y018836D01*
X001077Y018831D01*
X001079Y018759D01*
X001077Y018757D01*
X001077Y002544D01*
X001077Y002522D01*
X001077Y002469D01*
X001087Y002323D01*
X001162Y002041D01*
X001308Y001787D01*
X001299Y001803D02*
X001445Y001803D01*
X001440Y001807D02*
X001697Y001592D01*
X002011Y001477D01*
X002011Y001477D01*
X002088Y001477D01*
X002179Y001477D01*
X002346Y001477D01*
X002661Y001592D01*
X002661Y001592D01*
X002918Y001807D01*
X002918Y001807D01*
X002918Y001807D01*
X003085Y002097D01*
X003085Y002097D01*
X003144Y002427D01*
X003144Y002427D01*
X003085Y002757D01*
X003085Y002757D01*
X002918Y003047D01*
X002918Y003047D01*
X002661Y003263D01*
X002346Y003377D01*
X002270Y003377D01*
X002179Y003377D01*
X002177Y003377D01*
X002088Y003377D01*
X002011Y003377D01*
X001697Y003263D01*
X001697Y003263D01*
X001440Y003047D01*
X001272Y002757D01*
X001214Y002427D01*
X001272Y002097D01*
X001440Y001807D01*
X001440Y001807D01*
X001451Y001645D02*
X001634Y001645D01*
X001697Y001592D02*
X001697Y001592D01*
X001679Y001486D02*
X001987Y001486D01*
X002346Y001477D02*
X002346Y001477D01*
X002371Y001486D02*
X018363Y001486D01*
X018539Y001422D02*
X018539Y001422D01*
X018874Y001422D02*
X018874Y001422D01*
X019317Y001645D02*
X019445Y001645D01*
X019445Y001752D02*
X019445Y001752D01*
X019475Y001803D02*
X019567Y001803D01*
X019566Y001962D02*
X019660Y001962D01*
X019627Y002120D02*
X019700Y002120D01*
X019732Y002279D02*
X019655Y002279D01*
X019660Y002437D02*
X019731Y002437D01*
X019733Y002596D02*
X019632Y002596D01*
X019613Y002702D02*
X019613Y002702D01*
X019583Y002755D02*
X019733Y002755D01*
X019733Y002913D02*
X019491Y002913D01*
X019445Y002992D02*
X019445Y002992D01*
X019351Y003072D02*
X019733Y003072D01*
X019733Y003230D02*
X019127Y003230D01*
X018874Y003322D02*
X018874Y003322D01*
X018539Y003322D02*
X018539Y003322D01*
X018286Y003230D02*
X002700Y003230D01*
X002661Y003263D02*
X002661Y003263D01*
X002889Y003072D02*
X018062Y003072D01*
X017968Y002992D02*
X017967Y002992D01*
X017967Y002992D01*
X017922Y002913D02*
X002995Y002913D01*
X003086Y002755D02*
X004659Y002755D01*
X004695Y002791D02*
X004546Y002642D01*
X004465Y002447D01*
X004465Y002236D01*
X004546Y002041D01*
X004695Y001892D01*
X004890Y001812D01*
X005101Y001812D01*
X005296Y001892D01*
X005445Y002041D01*
X005525Y002236D01*
X005525Y002447D01*
X005445Y002642D01*
X005296Y002791D01*
X005101Y002872D01*
X004890Y002872D01*
X004695Y002791D01*
X004527Y002596D02*
X003114Y002596D01*
X003142Y002437D02*
X004465Y002437D01*
X004465Y002279D02*
X003117Y002279D01*
X003089Y002120D02*
X004513Y002120D01*
X004626Y001962D02*
X003007Y001962D01*
X002913Y001803D02*
X017938Y001803D01*
X017967Y001752D02*
X017967Y001752D01*
X018096Y001645D02*
X002724Y001645D01*
X001351Y001962D02*
X001208Y001962D01*
X001272Y002097D02*
X001272Y002097D01*
X001268Y002120D02*
X001141Y002120D01*
X001098Y002279D02*
X001240Y002279D01*
X001216Y002437D02*
X001079Y002437D01*
X001077Y002596D02*
X001244Y002596D01*
X001272Y002755D02*
X001077Y002755D01*
X001077Y002913D02*
X001362Y002913D01*
X001440Y003047D02*
X001440Y003047D01*
X001469Y003072D02*
X001077Y003072D01*
X001077Y003230D02*
X001658Y003230D01*
X002011Y003377D02*
X002011Y003377D01*
X002346Y003377D02*
X002346Y003377D01*
X001272Y002757D02*
X001272Y002757D01*
X001077Y003389D02*
X019733Y003389D01*
X019733Y003547D02*
X001077Y003547D01*
X001077Y003706D02*
X019733Y003706D01*
X019733Y003864D02*
X001077Y003864D01*
X001077Y004023D02*
X019733Y004023D01*
X019733Y004181D02*
X001077Y004181D01*
X001077Y004340D02*
X019733Y004340D01*
X019733Y004499D02*
X001077Y004499D01*
X001077Y004657D02*
X019733Y004657D01*
X019733Y004816D02*
X001077Y004816D01*
X001077Y004974D02*
X019733Y004974D01*
X019733Y005133D02*
X001077Y005133D01*
X001077Y005291D02*
X019733Y005291D01*
X019733Y005450D02*
X001077Y005450D01*
X001077Y005608D02*
X019733Y005608D01*
X019733Y005767D02*
X001077Y005767D01*
X001077Y005925D02*
X019733Y005925D01*
X019733Y006084D02*
X001077Y006084D01*
X001077Y006243D02*
X019733Y006243D01*
X019733Y006401D02*
X001077Y006401D01*
X001077Y006560D02*
X019733Y006560D01*
X019733Y006718D02*
X001077Y006718D01*
X001077Y006877D02*
X019733Y006877D01*
X019733Y007035D02*
X001077Y007035D01*
X001077Y007194D02*
X019733Y007194D01*
X019733Y007352D02*
X001077Y007352D01*
X001077Y007511D02*
X019733Y007511D01*
X019733Y007669D02*
X001077Y007669D01*
X001077Y007828D02*
X008046Y007828D01*
X007968Y007860D02*
X008208Y007761D01*
X008468Y007761D01*
X008708Y007860D01*
X008889Y008042D01*
X009071Y007860D01*
X009311Y007761D01*
X009570Y007761D01*
X009810Y007860D01*
X009991Y008042D01*
X010173Y007860D01*
X010413Y007761D01*
X010672Y007761D01*
X010912Y007860D01*
X011094Y008042D01*
X011275Y007860D01*
X011515Y007761D01*
X011775Y007761D01*
X012015Y007860D01*
X012196Y008042D01*
X012378Y007860D01*
X012618Y007761D01*
X012877Y007761D01*
X013117Y007860D01*
X013300Y008044D01*
X013400Y008283D01*
X013400Y008543D01*
X013300Y008783D01*
X013119Y008964D01*
X013299Y009144D01*
X013480Y008962D01*
X013720Y008863D01*
X013980Y008863D01*
X014219Y008962D01*
X014403Y009146D01*
X014502Y009386D01*
X014502Y009645D01*
X014403Y009885D01*
X014219Y010069D01*
X013980Y010168D01*
X013720Y010168D01*
X013480Y010069D01*
X013299Y009887D01*
X013117Y010069D01*
X013092Y010079D01*
X013261Y010248D01*
X013360Y010488D01*
X013360Y010748D01*
X013261Y010988D01*
X013079Y011169D01*
X013259Y011349D01*
X013441Y011167D01*
X013681Y011068D01*
X013940Y011068D01*
X014180Y011167D01*
X014363Y011351D01*
X014463Y011591D01*
X014463Y011850D01*
X014363Y012090D01*
X014180Y012273D01*
X013940Y012373D01*
X013681Y012373D01*
X013441Y012273D01*
X013259Y012092D01*
X013078Y012273D01*
X013052Y012284D01*
X013222Y012453D01*
X013321Y012693D01*
X013321Y012952D01*
X013222Y013192D01*
X013038Y013376D01*
X012798Y013475D01*
X012539Y013475D01*
X012299Y013376D01*
X012117Y013194D01*
X011936Y013376D01*
X011696Y013475D01*
X011436Y013475D01*
X011197Y013376D01*
X011015Y013194D01*
X010834Y013376D01*
X010594Y013475D01*
X010334Y013475D01*
X010094Y013376D01*
X009913Y013194D01*
X009731Y013376D01*
X009491Y013475D01*
X009232Y013475D01*
X008992Y013376D01*
X008810Y013194D01*
X008629Y013376D01*
X008389Y013475D01*
X008129Y013475D01*
X007890Y013376D01*
X007706Y013192D01*
X007607Y012952D01*
X007607Y012693D01*
X007706Y012453D01*
X007890Y012270D01*
X007915Y012259D01*
X007747Y012092D01*
X007566Y012273D01*
X007326Y012373D01*
X007066Y012373D01*
X006827Y012273D01*
X006643Y012090D01*
X006544Y011850D01*
X006544Y011591D01*
X006643Y011351D01*
X006827Y011167D01*
X007066Y011068D01*
X007326Y011068D01*
X007566Y011167D01*
X007747Y011349D01*
X007927Y011169D01*
X007745Y010988D01*
X007646Y010748D01*
X007646Y010488D01*
X007745Y010248D01*
X007929Y010065D01*
X007954Y010054D01*
X007787Y009887D01*
X007605Y010069D01*
X007365Y010168D01*
X007106Y010168D01*
X006866Y010069D01*
X006682Y009885D01*
X006583Y009645D01*
X006583Y009386D01*
X006682Y009146D01*
X006866Y008962D01*
X007106Y008863D01*
X007365Y008863D01*
X007605Y008962D01*
X007787Y009144D01*
X007966Y008964D01*
X007785Y008783D01*
X007686Y008543D01*
X007686Y008283D01*
X007785Y008044D01*
X007968Y007860D01*
X007842Y007986D02*
X001077Y007986D01*
X001077Y008145D02*
X007743Y008145D01*
X007686Y008304D02*
X001077Y008304D01*
X001077Y008462D02*
X007686Y008462D01*
X007718Y008621D02*
X001077Y008621D01*
X001077Y008779D02*
X007783Y008779D01*
X007940Y008938D02*
X007545Y008938D01*
X007739Y009096D02*
X007835Y009096D01*
X007785Y009889D02*
X007789Y009889D01*
X007947Y010048D02*
X007626Y010048D01*
X007788Y010206D02*
X006736Y010206D01*
X006729Y010198D02*
X006868Y010338D01*
X006943Y010519D01*
X006943Y010716D01*
X006868Y010898D01*
X006729Y011038D01*
X006547Y011113D01*
X006350Y011113D01*
X006168Y011038D01*
X006029Y010898D01*
X005953Y010716D01*
X005953Y010519D01*
X006029Y010338D01*
X006168Y010198D01*
X006350Y010123D01*
X006547Y010123D01*
X006729Y010198D01*
X006845Y010048D02*
X001077Y010048D01*
X001077Y010206D02*
X006160Y010206D01*
X006017Y010365D02*
X001077Y010365D01*
X001077Y010523D02*
X005953Y010523D01*
X005953Y010682D02*
X001077Y010682D01*
X001077Y010840D02*
X006005Y010840D01*
X006129Y010999D02*
X001077Y010999D01*
X001077Y011157D02*
X006850Y011157D01*
X006767Y010999D02*
X007757Y010999D01*
X007684Y010840D02*
X006892Y010840D01*
X006943Y010682D02*
X007646Y010682D01*
X007646Y010523D02*
X006943Y010523D01*
X006879Y010365D02*
X007697Y010365D01*
X007542Y011157D02*
X007915Y011157D01*
X007780Y011316D02*
X007714Y011316D01*
X007731Y012109D02*
X007764Y012109D01*
X007895Y012267D02*
X007572Y012267D01*
X007733Y012426D02*
X001077Y012426D01*
X001077Y012584D02*
X007652Y012584D01*
X007607Y012743D02*
X001077Y012743D01*
X001077Y012901D02*
X007607Y012901D01*
X007651Y013060D02*
X001077Y013060D01*
X001077Y013218D02*
X007732Y013218D01*
X007893Y013377D02*
X001077Y013377D01*
X001077Y013536D02*
X015435Y013536D01*
X015467Y013694D02*
X001077Y013694D01*
X001077Y013853D02*
X015474Y013853D01*
X015458Y013868D02*
X015494Y013832D01*
X015179Y012257D01*
X015132Y012238D01*
X015025Y012131D01*
X014968Y011992D01*
X014968Y011842D01*
X015025Y011703D01*
X015132Y011597D01*
X015271Y011539D01*
X015421Y011539D01*
X015560Y011597D01*
X015666Y011703D01*
X015724Y011842D01*
X015724Y011992D01*
X015666Y012131D01*
X015630Y012167D01*
X015945Y013742D01*
X015993Y013762D01*
X016099Y013868D01*
X016157Y014007D01*
X016157Y014158D01*
X016099Y014297D01*
X015993Y014403D01*
X015854Y014461D01*
X015704Y014461D01*
X015565Y014403D01*
X015458Y014297D01*
X015401Y014158D01*
X015401Y014007D01*
X015458Y013868D01*
X015401Y014011D02*
X001077Y014011D01*
X001077Y014170D02*
X015406Y014170D01*
X015490Y014328D02*
X001077Y014328D01*
X001077Y014487D02*
X005115Y014487D01*
X005065Y014538D02*
X005171Y014431D01*
X005310Y014374D01*
X005460Y014374D01*
X005599Y014431D01*
X005706Y014538D01*
X005763Y014677D01*
X005763Y014827D01*
X005728Y014911D01*
X006077Y015576D01*
X006090Y015576D01*
X006229Y015634D01*
X006336Y015740D01*
X006393Y015879D01*
X006393Y016029D01*
X006336Y016168D01*
X006229Y016275D01*
X006090Y016332D01*
X005940Y016332D01*
X005801Y016275D01*
X005695Y016168D01*
X005637Y016029D01*
X005637Y015879D01*
X005672Y015795D01*
X005324Y015130D01*
X005310Y015130D01*
X005171Y015072D01*
X005065Y014966D01*
X005007Y014827D01*
X005007Y014677D01*
X005065Y014538D01*
X005020Y014645D02*
X001077Y014645D01*
X001077Y014804D02*
X005007Y014804D01*
X005063Y014962D02*
X001077Y014962D01*
X001077Y015121D02*
X005288Y015121D01*
X005402Y015279D02*
X001077Y015279D01*
X001077Y015438D02*
X005485Y015438D01*
X005568Y015597D02*
X001077Y015597D01*
X001077Y015755D02*
X005651Y015755D01*
X005637Y015914D02*
X001077Y015914D01*
X001077Y016072D02*
X005655Y016072D01*
X005757Y016231D02*
X001077Y016231D01*
X001077Y016389D02*
X017125Y016389D01*
X017125Y016335D02*
X017206Y016141D01*
X017355Y015991D01*
X017550Y015911D01*
X017761Y015911D01*
X017955Y015991D01*
X018105Y016141D01*
X018185Y016335D01*
X018185Y016546D01*
X018105Y016741D01*
X017955Y016890D01*
X017761Y016971D01*
X017550Y016971D01*
X017355Y016890D01*
X017206Y016741D01*
X017125Y016546D01*
X017125Y016335D01*
X017169Y016231D02*
X006273Y016231D01*
X006375Y016072D02*
X017274Y016072D01*
X017543Y015914D02*
X006393Y015914D01*
X006342Y015755D02*
X019733Y015755D01*
X019733Y015597D02*
X006140Y015597D01*
X006004Y015438D02*
X019733Y015438D01*
X019733Y015279D02*
X005921Y015279D01*
X005838Y015121D02*
X019733Y015121D01*
X019733Y014962D02*
X005755Y014962D01*
X005763Y014804D02*
X019733Y014804D01*
X019733Y014645D02*
X005750Y014645D01*
X005655Y014487D02*
X019733Y014487D01*
X019733Y014328D02*
X016068Y014328D01*
X016152Y014170D02*
X019733Y014170D01*
X019733Y014011D02*
X016157Y014011D01*
X016084Y013853D02*
X019733Y013853D01*
X019733Y013694D02*
X015936Y013694D01*
X015904Y013536D02*
X019733Y013536D01*
X019733Y013377D02*
X015872Y013377D01*
X015841Y013218D02*
X019733Y013218D01*
X019733Y013060D02*
X015809Y013060D01*
X015777Y012901D02*
X019733Y012901D01*
X019733Y012743D02*
X015745Y012743D01*
X015714Y012584D02*
X019733Y012584D01*
X019733Y012426D02*
X015682Y012426D01*
X015650Y012267D02*
X019733Y012267D01*
X019733Y012109D02*
X015676Y012109D01*
X015724Y011950D02*
X019733Y011950D01*
X019733Y011792D02*
X015703Y011792D01*
X015596Y011633D02*
X019733Y011633D01*
X019733Y011474D02*
X014415Y011474D01*
X014463Y011633D02*
X015095Y011633D01*
X014989Y011792D02*
X014463Y011792D01*
X014421Y011950D02*
X014968Y011950D01*
X015016Y012109D02*
X014345Y012109D01*
X014186Y012267D02*
X015181Y012267D01*
X015213Y012426D02*
X013194Y012426D01*
X013276Y012584D02*
X015245Y012584D01*
X015276Y012743D02*
X013321Y012743D01*
X013321Y012901D02*
X015308Y012901D01*
X015340Y013060D02*
X013277Y013060D01*
X013196Y013218D02*
X015372Y013218D01*
X015403Y013377D02*
X013035Y013377D01*
X012302Y013377D02*
X011933Y013377D01*
X012093Y013218D02*
X012142Y013218D01*
X011200Y013377D02*
X010831Y013377D01*
X010991Y013218D02*
X011039Y013218D01*
X010097Y013377D02*
X009728Y013377D01*
X009888Y013218D02*
X009937Y013218D01*
X008995Y013377D02*
X008626Y013377D01*
X008786Y013218D02*
X008835Y013218D01*
X006820Y012267D02*
X001077Y012267D01*
X001077Y012109D02*
X006662Y012109D01*
X006585Y011950D02*
X001077Y011950D01*
X001077Y011792D02*
X006544Y011792D01*
X006544Y011633D02*
X001077Y011633D01*
X001077Y011474D02*
X006592Y011474D01*
X006678Y011316D02*
X001077Y011316D01*
X001077Y009889D02*
X006686Y009889D01*
X006618Y009730D02*
X001077Y009730D01*
X001077Y009572D02*
X006583Y009572D01*
X006583Y009413D02*
X001077Y009413D01*
X001077Y009255D02*
X006637Y009255D01*
X006732Y009096D02*
X001077Y009096D01*
X001077Y008938D02*
X006926Y008938D01*
X008630Y007828D02*
X009148Y007828D01*
X008944Y007986D02*
X008834Y007986D01*
X009732Y007828D02*
X010251Y007828D01*
X010047Y007986D02*
X009936Y007986D01*
X010835Y007828D02*
X011353Y007828D01*
X011149Y007986D02*
X011039Y007986D01*
X011937Y007828D02*
X012455Y007828D01*
X012251Y007986D02*
X012141Y007986D01*
X013039Y007828D02*
X019733Y007828D01*
X019733Y007986D02*
X013243Y007986D01*
X013342Y008145D02*
X019733Y008145D01*
X019733Y008304D02*
X013400Y008304D01*
X013400Y008462D02*
X019733Y008462D01*
X019733Y008621D02*
X013368Y008621D01*
X013302Y008779D02*
X019733Y008779D01*
X019733Y008938D02*
X014160Y008938D01*
X014353Y009096D02*
X019733Y009096D01*
X019733Y009255D02*
X014448Y009255D01*
X014502Y009413D02*
X019733Y009413D01*
X019733Y009572D02*
X014502Y009572D01*
X014467Y009730D02*
X019733Y009730D01*
X019733Y009889D02*
X014399Y009889D01*
X014240Y010048D02*
X019733Y010048D01*
X019733Y010206D02*
X014847Y010206D01*
X014839Y010198D02*
X014978Y010338D01*
X015053Y010519D01*
X015053Y010716D01*
X014978Y010898D01*
X014839Y011038D01*
X014657Y011113D01*
X014460Y011113D01*
X014278Y011038D01*
X014139Y010898D01*
X014063Y010716D01*
X014063Y010519D01*
X014139Y010338D01*
X014278Y010198D01*
X014460Y010123D01*
X014657Y010123D01*
X014839Y010198D01*
X014989Y010365D02*
X019733Y010365D01*
X019733Y010523D02*
X015053Y010523D01*
X015053Y010682D02*
X019733Y010682D01*
X019733Y010840D02*
X015002Y010840D01*
X014877Y010999D02*
X019733Y010999D01*
X019733Y011157D02*
X014156Y011157D01*
X014239Y010999D02*
X013250Y010999D01*
X013322Y010840D02*
X014115Y010840D01*
X014063Y010682D02*
X013360Y010682D01*
X013360Y010523D02*
X014063Y010523D01*
X014128Y010365D02*
X013309Y010365D01*
X013219Y010206D02*
X014270Y010206D01*
X013459Y010048D02*
X013138Y010048D01*
X013297Y009889D02*
X013301Y009889D01*
X013251Y009096D02*
X013346Y009096D01*
X013540Y008938D02*
X013146Y008938D01*
X013091Y011157D02*
X013465Y011157D01*
X013292Y011316D02*
X013226Y011316D01*
X013242Y012109D02*
X013276Y012109D01*
X013435Y012267D02*
X013084Y012267D01*
X014329Y011316D02*
X019733Y011316D01*
X019733Y015914D02*
X017768Y015914D01*
X018036Y016072D02*
X019733Y016072D01*
X019733Y016231D02*
X018142Y016231D01*
X018185Y016389D02*
X019733Y016389D01*
X019733Y016548D02*
X018185Y016548D01*
X018119Y016706D02*
X019733Y016706D01*
X019733Y016865D02*
X017981Y016865D01*
X017330Y016865D02*
X008596Y016865D01*
X008596Y016860D02*
X008512Y016658D01*
X008358Y016503D01*
X008156Y016420D01*
X007937Y016420D01*
X007735Y016503D01*
X007580Y016658D01*
X007496Y016860D01*
X007496Y017079D01*
X007580Y017281D01*
X007735Y017436D01*
X007866Y017490D01*
X007835Y017503D01*
X007680Y017658D01*
X007608Y017832D01*
X007564Y017728D01*
X007410Y017573D01*
X007208Y017490D01*
X006989Y017490D01*
X006787Y017573D01*
X006632Y017728D01*
X006548Y017930D01*
X006548Y018149D01*
X006632Y018351D01*
X006787Y018506D01*
X006989Y018589D01*
X007208Y018589D01*
X007410Y018506D01*
X007564Y018351D01*
X007637Y018177D01*
X007680Y018281D01*
X007835Y018436D01*
X007866Y018449D01*
X007735Y018503D01*
X007580Y018658D01*
X007496Y018860D01*
X007496Y019079D01*
X007580Y019281D01*
X007735Y019436D01*
X007937Y019519D01*
X008156Y019519D01*
X008358Y019436D01*
X008512Y019281D01*
X008596Y019079D01*
X008596Y018860D01*
X008512Y018658D01*
X008358Y018503D01*
X008326Y018490D01*
X008458Y018436D01*
X008612Y018281D01*
X008696Y018079D01*
X008696Y017860D01*
X008612Y017658D01*
X019733Y017658D01*
X019733Y017816D02*
X008678Y017816D01*
X008696Y017975D02*
X018276Y017975D01*
X018224Y017994D02*
X018539Y017879D01*
X018615Y017879D01*
X018706Y017879D01*
X018874Y017879D01*
X019189Y017994D01*
X019445Y018209D01*
X019445Y018209D01*
X019613Y018499D01*
X019671Y018829D01*
X019613Y019159D01*
X019613Y019159D01*
X019445Y019449D01*
X019189Y019664D01*
X019189Y019664D01*
X018874Y019779D01*
X018798Y019779D01*
X018706Y019779D01*
X018539Y019779D01*
X018539Y019779D01*
X018224Y019664D01*
X017968Y019449D01*
X017967Y019449D01*
X017800Y019159D01*
X017800Y019159D01*
X017742Y018829D01*
X017800Y018499D01*
X017967Y018209D01*
X018224Y017994D01*
X018224Y017994D01*
X018058Y018133D02*
X008674Y018133D01*
X008602Y018292D02*
X017920Y018292D01*
X017967Y018209D02*
X017967Y018209D01*
X017828Y018450D02*
X008423Y018450D01*
X008463Y018609D02*
X017781Y018609D01*
X017800Y018499D02*
X017800Y018499D01*
X017753Y018767D02*
X008558Y018767D01*
X008596Y018926D02*
X017759Y018926D01*
X017742Y018829D02*
X017742Y018829D01*
X017787Y019085D02*
X008594Y019085D01*
X008528Y019243D02*
X017849Y019243D01*
X017940Y019402D02*
X008392Y019402D01*
X007701Y019402D02*
X002971Y019402D01*
X002957Y019425D02*
X002957Y019425D01*
X003125Y019135D01*
X003125Y019135D01*
X003183Y018805D01*
X003183Y018805D01*
X003125Y018475D01*
X003125Y018475D01*
X002957Y018185D01*
X002957Y018185D01*
X002957Y018185D01*
X002701Y017970D01*
X002701Y017970D01*
X002386Y017855D01*
X002309Y017855D01*
X002218Y017855D01*
X002051Y017855D01*
X002051Y017855D01*
X001736Y017970D01*
X001736Y017970D01*
X001479Y018185D01*
X001479Y018185D01*
X001312Y018475D01*
X001312Y018475D01*
X001254Y018805D01*
X001254Y018805D01*
X001312Y019135D01*
X001312Y019135D01*
X001479Y019425D01*
X001479Y019425D01*
X001479Y019425D01*
X001736Y019641D01*
X001736Y019641D01*
X002051Y019755D01*
X002051Y019755D01*
X002127Y019755D01*
X002198Y019755D01*
X002218Y019755D01*
X002309Y019755D01*
X002386Y019755D01*
X002386Y019755D01*
X002701Y019641D01*
X002701Y019641D01*
X002957Y019425D01*
X002797Y019560D02*
X018100Y019560D01*
X018224Y019664D02*
X018224Y019664D01*
X018373Y019719D02*
X002486Y019719D01*
X001977Y019877D02*
X018941Y019877D01*
X018874Y019779D02*
X018874Y019779D01*
X019039Y019719D02*
X019329Y019719D01*
X019313Y019560D02*
X019508Y019560D01*
X019445Y019449D02*
X019445Y019449D01*
X019473Y019402D02*
X019624Y019402D01*
X019680Y019243D02*
X019564Y019243D01*
X019626Y019085D02*
X019724Y019085D01*
X019733Y018926D02*
X019654Y018926D01*
X019671Y018829D02*
X019671Y018829D01*
X019660Y018767D02*
X019733Y018767D01*
X019733Y018609D02*
X019632Y018609D01*
X019613Y018499D02*
X019613Y018499D01*
X019585Y018450D02*
X019733Y018450D01*
X019733Y018292D02*
X019493Y018292D01*
X019445Y018209D02*
X019445Y018209D01*
X019355Y018133D02*
X019733Y018133D01*
X019733Y017975D02*
X019137Y017975D01*
X019189Y017994D02*
X019189Y017994D01*
X018874Y017879D02*
X018874Y017879D01*
X018539Y017879D02*
X018539Y017879D01*
X019733Y017499D02*
X008448Y017499D01*
X008458Y017503D02*
X008612Y017658D01*
X008458Y017503D02*
X008326Y017449D01*
X008358Y017436D01*
X008512Y017281D01*
X008596Y017079D01*
X008596Y016860D01*
X008596Y017023D02*
X019733Y017023D01*
X019733Y017182D02*
X008554Y017182D01*
X008453Y017341D02*
X019733Y017341D01*
X017967Y019449D02*
X017967Y019449D01*
X017192Y016706D02*
X008532Y016706D01*
X008402Y016548D02*
X017126Y016548D01*
X007845Y017499D02*
X007231Y017499D01*
X006966Y017499D02*
X004559Y017499D01*
X004559Y017560D02*
X004559Y017349D01*
X004479Y017155D01*
X004329Y017006D01*
X004135Y016925D01*
X003924Y016925D01*
X003729Y017006D01*
X003580Y017155D01*
X003499Y017349D01*
X003499Y017560D01*
X003580Y017755D01*
X003729Y017904D01*
X003924Y017985D01*
X004135Y017985D01*
X004329Y017904D01*
X004479Y017755D01*
X004559Y017560D01*
X004519Y017658D02*
X006702Y017658D01*
X006595Y017816D02*
X004418Y017816D01*
X004159Y017975D02*
X006548Y017975D01*
X006548Y018133D02*
X002895Y018133D01*
X003019Y018292D02*
X006607Y018292D01*
X006731Y018450D02*
X003110Y018450D01*
X003148Y018609D02*
X007629Y018609D01*
X007535Y018767D02*
X003176Y018767D01*
X003162Y018926D02*
X007496Y018926D01*
X007499Y019085D02*
X003134Y019085D01*
X003062Y019243D02*
X007564Y019243D01*
X007465Y018450D02*
X007862Y018450D01*
X007691Y018292D02*
X007589Y018292D01*
X007601Y017816D02*
X007614Y017816D01*
X007680Y017658D02*
X007494Y017658D01*
X007639Y017341D02*
X004556Y017341D01*
X004490Y017182D02*
X007539Y017182D01*
X007496Y017023D02*
X004347Y017023D01*
X003711Y017023D02*
X001077Y017023D01*
X001077Y016865D02*
X007496Y016865D01*
X007560Y016706D02*
X001077Y016706D01*
X001077Y016548D02*
X007690Y016548D01*
X003899Y017975D02*
X002706Y017975D01*
X002386Y017855D02*
X002386Y017855D01*
X001730Y017975D02*
X001077Y017975D01*
X001077Y018133D02*
X001541Y018133D01*
X001418Y018292D02*
X001077Y018292D01*
X001077Y018450D02*
X001326Y018450D01*
X001288Y018609D02*
X001077Y018609D01*
X001079Y018767D02*
X001260Y018767D01*
X001275Y018926D02*
X001081Y018926D01*
X001110Y019085D02*
X001303Y019085D01*
X001374Y019243D02*
X001156Y019243D01*
X001241Y019402D02*
X001466Y019402D01*
X001349Y019560D02*
X001640Y019560D01*
X001550Y019719D02*
X001950Y019719D01*
X001077Y017816D02*
X003641Y017816D01*
X003540Y017658D02*
X001077Y017658D01*
X001077Y017499D02*
X003499Y017499D01*
X003503Y017341D02*
X001077Y017341D01*
X001077Y017182D02*
X003569Y017182D01*
X005332Y002755D02*
X017830Y002755D01*
X017800Y002702D02*
X017800Y002702D01*
X017781Y002596D02*
X005464Y002596D01*
X005525Y002437D02*
X017753Y002437D01*
X017742Y002372D02*
X017742Y002372D01*
X017758Y002279D02*
X005525Y002279D01*
X005477Y002120D02*
X017786Y002120D01*
X017800Y002042D02*
X017800Y002042D01*
X017846Y001962D02*
X005365Y001962D01*
X018224Y003208D02*
X018224Y003208D01*
D14*
X015346Y011917D03*
X015779Y014083D03*
X018102Y012744D03*
X011125Y016887D03*
X006015Y015954D03*
X005385Y014752D03*
X005428Y012907D03*
X007314Y004004D03*
D15*
X006015Y007665D02*
X006015Y010449D01*
X006054Y010355D01*
X006185Y010224D01*
X006356Y010153D01*
X006541Y010153D01*
X006712Y010224D01*
X006842Y010355D01*
X006913Y010525D01*
X006913Y010710D01*
X006842Y010881D01*
X006712Y011012D01*
X006541Y011083D01*
X006356Y011083D01*
X006185Y011012D01*
X006054Y010881D01*
X006015Y010787D01*
X006015Y013571D01*
X015070Y013571D01*
X015070Y012134D01*
X015051Y012114D01*
X014998Y011986D01*
X014998Y011848D01*
X015051Y011720D01*
X015070Y011700D01*
X015070Y007665D01*
X006015Y007665D01*
X006015Y007673D02*
X015070Y007673D01*
X015070Y007772D02*
X006015Y007772D01*
X006015Y007870D02*
X015070Y007870D01*
X015070Y007969D02*
X006015Y007969D01*
X006015Y008067D02*
X015070Y008067D01*
X015070Y008166D02*
X006015Y008166D01*
X006015Y008264D02*
X015070Y008264D01*
X015070Y008363D02*
X006015Y008363D01*
X006015Y008461D02*
X015070Y008461D01*
X015070Y008560D02*
X006015Y008560D01*
X006015Y008658D02*
X015070Y008658D01*
X015070Y008757D02*
X006015Y008757D01*
X006015Y008856D02*
X015070Y008856D01*
X015070Y008954D02*
X006015Y008954D01*
X006015Y009053D02*
X015070Y009053D01*
X015070Y009151D02*
X006015Y009151D01*
X006015Y009250D02*
X015070Y009250D01*
X015070Y009348D02*
X006015Y009348D01*
X006015Y009447D02*
X015070Y009447D01*
X015070Y009545D02*
X006015Y009545D01*
X006015Y009644D02*
X015070Y009644D01*
X015070Y009742D02*
X006015Y009742D01*
X006015Y009841D02*
X015070Y009841D01*
X015070Y009939D02*
X006015Y009939D01*
X006015Y010038D02*
X015070Y010038D01*
X015070Y010137D02*
X006015Y010137D01*
X006015Y010235D02*
X006173Y010235D01*
X006075Y010334D02*
X006015Y010334D01*
X006015Y010432D02*
X006022Y010432D01*
X006015Y010826D02*
X006031Y010826D01*
X006015Y010925D02*
X006098Y010925D01*
X006015Y011023D02*
X006212Y011023D01*
X006015Y011122D02*
X015070Y011122D01*
X015070Y011221D02*
X006015Y011221D01*
X006015Y011319D02*
X015070Y011319D01*
X015070Y011418D02*
X006015Y011418D01*
X006015Y011516D02*
X015070Y011516D01*
X015070Y011615D02*
X006015Y011615D01*
X006015Y011713D02*
X015057Y011713D01*
X015013Y011812D02*
X006015Y011812D01*
X006015Y011910D02*
X014998Y011910D01*
X015007Y012009D02*
X006015Y012009D01*
X006015Y012107D02*
X015048Y012107D01*
X015070Y012206D02*
X006015Y012206D01*
X006015Y012305D02*
X015070Y012305D01*
X015070Y012403D02*
X006015Y012403D01*
X006015Y012502D02*
X015070Y012502D01*
X015070Y012600D02*
X006015Y012600D01*
X006015Y012699D02*
X015070Y012699D01*
X015070Y012797D02*
X006015Y012797D01*
X006015Y012896D02*
X015070Y012896D01*
X015070Y012994D02*
X006015Y012994D01*
X006015Y013093D02*
X015070Y013093D01*
X015070Y013191D02*
X006015Y013191D01*
X006015Y013290D02*
X015070Y013290D01*
X015070Y013389D02*
X006015Y013389D01*
X006015Y013487D02*
X015070Y013487D01*
X015779Y014083D02*
X015346Y011917D01*
X014822Y011012D02*
X014651Y011083D01*
X014466Y011083D01*
X014295Y011012D01*
X014164Y010881D01*
X014093Y010710D01*
X014093Y010525D01*
X014164Y010355D01*
X014295Y010224D01*
X014466Y010153D01*
X014651Y010153D01*
X014822Y010224D01*
X014953Y010355D01*
X015023Y010525D01*
X015023Y010710D01*
X014953Y010881D01*
X014822Y011012D01*
X014794Y011023D02*
X015070Y011023D01*
X015070Y010925D02*
X014909Y010925D01*
X014975Y010826D02*
X015070Y010826D01*
X015070Y010728D02*
X015016Y010728D01*
X015023Y010629D02*
X015070Y010629D01*
X015070Y010531D02*
X015023Y010531D01*
X014985Y010432D02*
X015070Y010432D01*
X015070Y010334D02*
X014932Y010334D01*
X014833Y010235D02*
X015070Y010235D01*
X014284Y010235D02*
X006723Y010235D01*
X006821Y010334D02*
X014185Y010334D01*
X014132Y010432D02*
X006874Y010432D01*
X006913Y010531D02*
X014093Y010531D01*
X014093Y010629D02*
X006913Y010629D01*
X006906Y010728D02*
X014101Y010728D01*
X014142Y010826D02*
X006865Y010826D01*
X006799Y010925D02*
X014208Y010925D01*
X014323Y011023D02*
X006684Y011023D01*
X005385Y014752D02*
X006015Y015954D01*
D16*
X008259Y012823D03*
X009362Y012823D03*
X010464Y012823D03*
X011566Y012823D03*
X012669Y012823D03*
X012708Y011720D03*
X013810Y011720D03*
X012708Y010618D03*
X012747Y009516D03*
X011645Y009516D03*
X011606Y010618D03*
X010503Y010618D03*
X009401Y010618D03*
X008299Y010618D03*
X008338Y009516D03*
X009440Y009516D03*
X010543Y009516D03*
X010543Y008413D03*
X009440Y008413D03*
X008338Y008413D03*
X007236Y009516D03*
X007196Y011720D03*
X008299Y011720D03*
X009401Y011720D03*
X010503Y011720D03*
X011606Y011720D03*
X013850Y009516D03*
X012747Y008413D03*
X011645Y008413D03*
M02*
