G75*
G70*
%OFA0B0*%
%FSLAX24Y24*%
%IPPOS*%
%LPD*%
%AMOC8*
5,1,8,0,0,1.08239X$1,22.5*
%
%ADD10C,0.0000*%
%ADD11C,0.0030*%
%ADD12C,0.0060*%
%ADD13C,0.0050*%
%ADD14C,0.0120*%
%ADD15C,0.0160*%
%ADD16C,0.0040*%
D10*
X002197Y001169D02*
X018827Y001169D01*
X018828Y001169D02*
X018893Y001175D01*
X018958Y001185D01*
X019022Y001198D01*
X019085Y001215D01*
X019147Y001236D01*
X019208Y001260D01*
X019267Y001287D01*
X019325Y001318D01*
X019381Y001352D01*
X019435Y001389D01*
X019487Y001429D01*
X019537Y001472D01*
X019584Y001517D01*
X019628Y001565D01*
X019670Y001616D01*
X019708Y001669D01*
X019744Y001723D01*
X019777Y001780D01*
X019806Y001839D01*
X019832Y001899D01*
X019855Y001960D01*
X019874Y002023D01*
X019890Y002086D01*
X019902Y002151D01*
X019910Y002216D01*
X019915Y002281D01*
X019916Y002346D01*
X019913Y002412D01*
X019913Y018974D01*
X019911Y019037D01*
X019906Y019101D01*
X019896Y019164D01*
X019884Y019226D01*
X019867Y019287D01*
X019847Y019348D01*
X019824Y019407D01*
X019797Y019465D01*
X019767Y019520D01*
X019733Y019575D01*
X019697Y019627D01*
X019657Y019677D01*
X019615Y019724D01*
X019570Y019769D01*
X019523Y019811D01*
X019473Y019851D01*
X019421Y019887D01*
X019366Y019921D01*
X019311Y019951D01*
X019253Y019978D01*
X019194Y020001D01*
X019133Y020021D01*
X019072Y020038D01*
X019010Y020050D01*
X018947Y020060D01*
X018883Y020065D01*
X018820Y020067D01*
X002057Y020067D01*
X002057Y020066D02*
X001989Y020062D01*
X001923Y020054D01*
X001856Y020043D01*
X001791Y020028D01*
X001726Y020009D01*
X001663Y019986D01*
X001601Y019960D01*
X001540Y019931D01*
X001481Y019898D01*
X001425Y019862D01*
X001370Y019822D01*
X001317Y019780D01*
X001267Y019735D01*
X001220Y019687D01*
X001175Y019637D01*
X001134Y019584D01*
X001095Y019529D01*
X001060Y019472D01*
X001027Y019413D01*
X000998Y019352D01*
X000973Y019290D01*
X000951Y019226D01*
X000933Y019161D01*
X000918Y019096D01*
X000907Y019029D01*
X000900Y018962D01*
X000896Y018895D01*
X000897Y018828D01*
X000897Y002469D01*
X001529Y002427D02*
X001531Y002477D01*
X001537Y002527D01*
X001547Y002577D01*
X001560Y002625D01*
X001577Y002673D01*
X001598Y002719D01*
X001622Y002763D01*
X001650Y002805D01*
X001681Y002845D01*
X001715Y002882D01*
X001752Y002917D01*
X001791Y002948D01*
X001832Y002977D01*
X001876Y003002D01*
X001922Y003024D01*
X001969Y003042D01*
X002017Y003056D01*
X002066Y003067D01*
X002116Y003074D01*
X002166Y003077D01*
X002217Y003076D01*
X002267Y003071D01*
X002317Y003062D01*
X002365Y003050D01*
X002413Y003033D01*
X002459Y003013D01*
X002504Y002990D01*
X002547Y002963D01*
X002587Y002933D01*
X002625Y002900D01*
X002660Y002864D01*
X002693Y002825D01*
X002722Y002784D01*
X002748Y002741D01*
X002771Y002696D01*
X002790Y002649D01*
X002805Y002601D01*
X002817Y002552D01*
X002825Y002502D01*
X002829Y002452D01*
X002829Y002402D01*
X002825Y002352D01*
X002817Y002302D01*
X002805Y002253D01*
X002790Y002205D01*
X002771Y002158D01*
X002748Y002113D01*
X002722Y002070D01*
X002693Y002029D01*
X002660Y001990D01*
X002625Y001954D01*
X002587Y001921D01*
X002547Y001891D01*
X002504Y001864D01*
X002459Y001841D01*
X002413Y001821D01*
X002365Y001804D01*
X002317Y001792D01*
X002267Y001783D01*
X002217Y001778D01*
X002166Y001777D01*
X002116Y001780D01*
X002066Y001787D01*
X002017Y001798D01*
X001969Y001812D01*
X001922Y001830D01*
X001876Y001852D01*
X001832Y001877D01*
X001791Y001906D01*
X001752Y001937D01*
X001715Y001972D01*
X001681Y002009D01*
X001650Y002049D01*
X001622Y002091D01*
X001598Y002135D01*
X001577Y002181D01*
X001560Y002229D01*
X001547Y002277D01*
X001537Y002327D01*
X001531Y002377D01*
X001529Y002427D01*
X000897Y002469D02*
X000899Y002399D01*
X000905Y002328D01*
X000914Y002259D01*
X000927Y002190D01*
X000944Y002121D01*
X000965Y002054D01*
X000989Y001988D01*
X001017Y001923D01*
X001048Y001860D01*
X001083Y001799D01*
X001121Y001739D01*
X001162Y001682D01*
X001206Y001627D01*
X001253Y001575D01*
X001303Y001525D01*
X001355Y001478D01*
X001410Y001434D01*
X001467Y001393D01*
X001527Y001355D01*
X001588Y001320D01*
X001651Y001289D01*
X001716Y001261D01*
X001782Y001237D01*
X001849Y001216D01*
X001918Y001199D01*
X001987Y001186D01*
X002056Y001177D01*
X002127Y001171D01*
X002197Y001169D01*
X006133Y010618D02*
X006135Y010653D01*
X006141Y010688D01*
X006151Y010722D01*
X006164Y010755D01*
X006181Y010786D01*
X006202Y010814D01*
X006225Y010841D01*
X006252Y010864D01*
X006280Y010885D01*
X006311Y010902D01*
X006344Y010915D01*
X006378Y010925D01*
X006413Y010931D01*
X006448Y010933D01*
X006483Y010931D01*
X006518Y010925D01*
X006552Y010915D01*
X006585Y010902D01*
X006616Y010885D01*
X006644Y010864D01*
X006671Y010841D01*
X006694Y010814D01*
X006715Y010786D01*
X006732Y010755D01*
X006745Y010722D01*
X006755Y010688D01*
X006761Y010653D01*
X006763Y010618D01*
X006761Y010583D01*
X006755Y010548D01*
X006745Y010514D01*
X006732Y010481D01*
X006715Y010450D01*
X006694Y010422D01*
X006671Y010395D01*
X006644Y010372D01*
X006616Y010351D01*
X006585Y010334D01*
X006552Y010321D01*
X006518Y010311D01*
X006483Y010305D01*
X006448Y010303D01*
X006413Y010305D01*
X006378Y010311D01*
X006344Y010321D01*
X006311Y010334D01*
X006280Y010351D01*
X006252Y010372D01*
X006225Y010395D01*
X006202Y010422D01*
X006181Y010450D01*
X006164Y010481D01*
X006151Y010514D01*
X006141Y010548D01*
X006135Y010583D01*
X006133Y010618D01*
X001568Y018805D02*
X001570Y018855D01*
X001576Y018905D01*
X001586Y018955D01*
X001599Y019003D01*
X001616Y019051D01*
X001637Y019097D01*
X001661Y019141D01*
X001689Y019183D01*
X001720Y019223D01*
X001754Y019260D01*
X001791Y019295D01*
X001830Y019326D01*
X001871Y019355D01*
X001915Y019380D01*
X001961Y019402D01*
X002008Y019420D01*
X002056Y019434D01*
X002105Y019445D01*
X002155Y019452D01*
X002205Y019455D01*
X002256Y019454D01*
X002306Y019449D01*
X002356Y019440D01*
X002404Y019428D01*
X002452Y019411D01*
X002498Y019391D01*
X002543Y019368D01*
X002586Y019341D01*
X002626Y019311D01*
X002664Y019278D01*
X002699Y019242D01*
X002732Y019203D01*
X002761Y019162D01*
X002787Y019119D01*
X002810Y019074D01*
X002829Y019027D01*
X002844Y018979D01*
X002856Y018930D01*
X002864Y018880D01*
X002868Y018830D01*
X002868Y018780D01*
X002864Y018730D01*
X002856Y018680D01*
X002844Y018631D01*
X002829Y018583D01*
X002810Y018536D01*
X002787Y018491D01*
X002761Y018448D01*
X002732Y018407D01*
X002699Y018368D01*
X002664Y018332D01*
X002626Y018299D01*
X002586Y018269D01*
X002543Y018242D01*
X002498Y018219D01*
X002452Y018199D01*
X002404Y018182D01*
X002356Y018170D01*
X002306Y018161D01*
X002256Y018156D01*
X002205Y018155D01*
X002155Y018158D01*
X002105Y018165D01*
X002056Y018176D01*
X002008Y018190D01*
X001961Y018208D01*
X001915Y018230D01*
X001871Y018255D01*
X001830Y018284D01*
X001791Y018315D01*
X001754Y018350D01*
X001720Y018387D01*
X001689Y018427D01*
X001661Y018469D01*
X001637Y018513D01*
X001616Y018559D01*
X001599Y018607D01*
X001586Y018655D01*
X001576Y018705D01*
X001570Y018755D01*
X001568Y018805D01*
X014243Y010618D02*
X014245Y010653D01*
X014251Y010688D01*
X014261Y010722D01*
X014274Y010755D01*
X014291Y010786D01*
X014312Y010814D01*
X014335Y010841D01*
X014362Y010864D01*
X014390Y010885D01*
X014421Y010902D01*
X014454Y010915D01*
X014488Y010925D01*
X014523Y010931D01*
X014558Y010933D01*
X014593Y010931D01*
X014628Y010925D01*
X014662Y010915D01*
X014695Y010902D01*
X014726Y010885D01*
X014754Y010864D01*
X014781Y010841D01*
X014804Y010814D01*
X014825Y010786D01*
X014842Y010755D01*
X014855Y010722D01*
X014865Y010688D01*
X014871Y010653D01*
X014873Y010618D01*
X014871Y010583D01*
X014865Y010548D01*
X014855Y010514D01*
X014842Y010481D01*
X014825Y010450D01*
X014804Y010422D01*
X014781Y010395D01*
X014754Y010372D01*
X014726Y010351D01*
X014695Y010334D01*
X014662Y010321D01*
X014628Y010311D01*
X014593Y010305D01*
X014558Y010303D01*
X014523Y010305D01*
X014488Y010311D01*
X014454Y010321D01*
X014421Y010334D01*
X014390Y010351D01*
X014362Y010372D01*
X014335Y010395D01*
X014312Y010422D01*
X014291Y010450D01*
X014274Y010481D01*
X014261Y010514D01*
X014251Y010548D01*
X014245Y010583D01*
X014243Y010618D01*
X018056Y018829D02*
X018058Y018879D01*
X018064Y018929D01*
X018074Y018979D01*
X018087Y019027D01*
X018104Y019075D01*
X018125Y019121D01*
X018149Y019165D01*
X018177Y019207D01*
X018208Y019247D01*
X018242Y019284D01*
X018279Y019319D01*
X018318Y019350D01*
X018359Y019379D01*
X018403Y019404D01*
X018449Y019426D01*
X018496Y019444D01*
X018544Y019458D01*
X018593Y019469D01*
X018643Y019476D01*
X018693Y019479D01*
X018744Y019478D01*
X018794Y019473D01*
X018844Y019464D01*
X018892Y019452D01*
X018940Y019435D01*
X018986Y019415D01*
X019031Y019392D01*
X019074Y019365D01*
X019114Y019335D01*
X019152Y019302D01*
X019187Y019266D01*
X019220Y019227D01*
X019249Y019186D01*
X019275Y019143D01*
X019298Y019098D01*
X019317Y019051D01*
X019332Y019003D01*
X019344Y018954D01*
X019352Y018904D01*
X019356Y018854D01*
X019356Y018804D01*
X019352Y018754D01*
X019344Y018704D01*
X019332Y018655D01*
X019317Y018607D01*
X019298Y018560D01*
X019275Y018515D01*
X019249Y018472D01*
X019220Y018431D01*
X019187Y018392D01*
X019152Y018356D01*
X019114Y018323D01*
X019074Y018293D01*
X019031Y018266D01*
X018986Y018243D01*
X018940Y018223D01*
X018892Y018206D01*
X018844Y018194D01*
X018794Y018185D01*
X018744Y018180D01*
X018693Y018179D01*
X018643Y018182D01*
X018593Y018189D01*
X018544Y018200D01*
X018496Y018214D01*
X018449Y018232D01*
X018403Y018254D01*
X018359Y018279D01*
X018318Y018308D01*
X018279Y018339D01*
X018242Y018374D01*
X018208Y018411D01*
X018177Y018451D01*
X018149Y018493D01*
X018125Y018537D01*
X018104Y018583D01*
X018087Y018631D01*
X018074Y018679D01*
X018064Y018729D01*
X018058Y018779D01*
X018056Y018829D01*
X018056Y002372D02*
X018058Y002422D01*
X018064Y002472D01*
X018074Y002522D01*
X018087Y002570D01*
X018104Y002618D01*
X018125Y002664D01*
X018149Y002708D01*
X018177Y002750D01*
X018208Y002790D01*
X018242Y002827D01*
X018279Y002862D01*
X018318Y002893D01*
X018359Y002922D01*
X018403Y002947D01*
X018449Y002969D01*
X018496Y002987D01*
X018544Y003001D01*
X018593Y003012D01*
X018643Y003019D01*
X018693Y003022D01*
X018744Y003021D01*
X018794Y003016D01*
X018844Y003007D01*
X018892Y002995D01*
X018940Y002978D01*
X018986Y002958D01*
X019031Y002935D01*
X019074Y002908D01*
X019114Y002878D01*
X019152Y002845D01*
X019187Y002809D01*
X019220Y002770D01*
X019249Y002729D01*
X019275Y002686D01*
X019298Y002641D01*
X019317Y002594D01*
X019332Y002546D01*
X019344Y002497D01*
X019352Y002447D01*
X019356Y002397D01*
X019356Y002347D01*
X019352Y002297D01*
X019344Y002247D01*
X019332Y002198D01*
X019317Y002150D01*
X019298Y002103D01*
X019275Y002058D01*
X019249Y002015D01*
X019220Y001974D01*
X019187Y001935D01*
X019152Y001899D01*
X019114Y001866D01*
X019074Y001836D01*
X019031Y001809D01*
X018986Y001786D01*
X018940Y001766D01*
X018892Y001749D01*
X018844Y001737D01*
X018794Y001728D01*
X018744Y001723D01*
X018693Y001722D01*
X018643Y001725D01*
X018593Y001732D01*
X018544Y001743D01*
X018496Y001757D01*
X018449Y001775D01*
X018403Y001797D01*
X018359Y001822D01*
X018318Y001851D01*
X018279Y001882D01*
X018242Y001917D01*
X018208Y001954D01*
X018177Y001994D01*
X018149Y002036D01*
X018125Y002080D01*
X018104Y002126D01*
X018087Y002174D01*
X018074Y002222D01*
X018064Y002272D01*
X018058Y002322D01*
X018056Y002372D01*
D11*
X018053Y003625D02*
X018053Y003915D01*
X017957Y003819D01*
X017856Y003819D02*
X017662Y003625D01*
X017856Y003625D01*
X017957Y003625D02*
X018150Y003625D01*
X017856Y003819D02*
X017856Y003867D01*
X017807Y003915D01*
X017710Y003915D01*
X017662Y003867D01*
X017561Y003915D02*
X017367Y003915D01*
X017367Y003770D01*
X017464Y003819D01*
X017513Y003819D01*
X017561Y003770D01*
X017561Y003673D01*
X017513Y003625D01*
X017416Y003625D01*
X017367Y003673D01*
X017266Y003673D02*
X017218Y003625D01*
X017121Y003625D01*
X017073Y003673D01*
X017073Y003722D01*
X017121Y003770D01*
X017218Y003770D01*
X017266Y003722D01*
X017266Y003673D01*
X017218Y003770D02*
X017266Y003819D01*
X017266Y003867D01*
X017218Y003915D01*
X017121Y003915D01*
X017073Y003867D01*
X017073Y003819D01*
X017121Y003770D01*
X016972Y003722D02*
X016972Y003673D01*
X016923Y003625D01*
X016826Y003625D01*
X016778Y003673D01*
X016875Y003770D02*
X016923Y003770D01*
X016972Y003722D01*
X016923Y003770D02*
X016972Y003819D01*
X016972Y003867D01*
X016923Y003915D01*
X016826Y003915D01*
X016778Y003867D01*
X007198Y015357D02*
X006951Y015357D01*
X006890Y015419D01*
X006890Y015543D01*
X006951Y015604D01*
X007075Y015604D02*
X007075Y015481D01*
X007075Y015604D02*
X007198Y015604D01*
X007260Y015543D01*
X007260Y015419D01*
X007198Y015357D01*
X007260Y015726D02*
X006890Y015726D01*
X007260Y015973D01*
X006890Y015973D01*
X006890Y016094D02*
X006890Y016279D01*
X006951Y016341D01*
X007198Y016341D01*
X007260Y016279D01*
X007260Y016094D01*
X006890Y016094D01*
X007913Y015950D02*
X007913Y015765D01*
X008284Y015765D01*
X008284Y015950D01*
X008222Y016012D01*
X007975Y016012D01*
X007913Y015950D01*
X008037Y016133D02*
X007913Y016257D01*
X008037Y016380D01*
X008284Y016380D01*
X008098Y016380D02*
X008098Y016133D01*
X008037Y016133D02*
X008284Y016133D01*
X008222Y015644D02*
X008160Y015644D01*
X008098Y015582D01*
X008098Y015458D01*
X008037Y015397D01*
X007975Y015397D01*
X007913Y015458D01*
X007913Y015582D01*
X007975Y015644D01*
X008222Y015644D02*
X008284Y015582D01*
X008284Y015458D01*
X008222Y015397D01*
X010258Y017365D02*
X010197Y017427D01*
X010197Y017550D01*
X010258Y017612D01*
X010258Y017734D02*
X010505Y017734D01*
X010567Y017795D01*
X010567Y017919D01*
X010505Y017980D01*
X010567Y018102D02*
X010197Y018102D01*
X010258Y017980D02*
X010197Y017919D01*
X010197Y017795D01*
X010258Y017734D01*
X010382Y017550D02*
X010444Y017612D01*
X010505Y017612D01*
X010567Y017550D01*
X010567Y017427D01*
X010505Y017365D01*
X010382Y017427D02*
X010382Y017550D01*
X010382Y017427D02*
X010320Y017365D01*
X010258Y017365D01*
X010567Y018102D02*
X010567Y018349D01*
X008496Y019592D02*
X008434Y019531D01*
X008311Y019531D01*
X008249Y019592D01*
X008249Y019716D02*
X008372Y019777D01*
X008434Y019777D01*
X008496Y019716D01*
X008496Y019592D01*
X008249Y019716D02*
X008249Y019901D01*
X008496Y019901D01*
X008127Y019716D02*
X007881Y019716D01*
X008004Y019839D02*
X008004Y019592D01*
X007260Y019609D02*
X007260Y019362D01*
X007013Y019609D01*
X006951Y019609D01*
X006890Y019547D01*
X006890Y019423D01*
X006951Y019362D01*
X006890Y019117D02*
X007260Y019117D01*
X007260Y019240D02*
X007260Y018993D01*
X007075Y018872D02*
X007075Y018625D01*
X007198Y018749D02*
X006951Y018749D01*
X007013Y018993D02*
X006890Y019117D01*
D12*
X009219Y019287D02*
X009691Y019287D01*
X009691Y018657D02*
X009219Y018657D01*
X009221Y018309D02*
X009694Y018309D01*
X009694Y017679D02*
X009221Y017679D01*
X009225Y017282D02*
X009697Y017282D01*
X009697Y016652D02*
X009225Y016652D01*
X012071Y016731D02*
X012543Y016731D01*
X012543Y016101D02*
X012071Y016101D01*
X015738Y019090D02*
X015952Y019303D01*
X015738Y019090D02*
X015952Y018876D01*
D13*
X015529Y016441D02*
X015531Y016522D01*
X015537Y016603D01*
X015547Y016684D01*
X015561Y016764D01*
X015579Y016843D01*
X015600Y016921D01*
X015626Y016998D01*
X015655Y017074D01*
X015688Y017148D01*
X015724Y017221D01*
X015764Y017291D01*
X015808Y017360D01*
X015854Y017426D01*
X015904Y017490D01*
X015957Y017552D01*
X016013Y017611D01*
X016072Y017667D01*
X016134Y017720D01*
X016198Y017770D01*
X016264Y017816D01*
X016333Y017860D01*
X016403Y017900D01*
X016476Y017936D01*
X016550Y017969D01*
X016626Y017998D01*
X016703Y018024D01*
X016781Y018045D01*
X016860Y018063D01*
X016940Y018077D01*
X017021Y018087D01*
X017102Y018093D01*
X017183Y018095D01*
X017264Y018093D01*
X017345Y018087D01*
X017426Y018077D01*
X017506Y018063D01*
X017585Y018045D01*
X017663Y018024D01*
X017740Y017998D01*
X017816Y017969D01*
X017890Y017936D01*
X017963Y017900D01*
X018033Y017860D01*
X018102Y017816D01*
X018168Y017770D01*
X018232Y017720D01*
X018294Y017667D01*
X018353Y017611D01*
X018409Y017552D01*
X018462Y017490D01*
X018512Y017426D01*
X018558Y017360D01*
X018602Y017291D01*
X018642Y017221D01*
X018678Y017148D01*
X018711Y017074D01*
X018740Y016998D01*
X018766Y016921D01*
X018787Y016843D01*
X018805Y016764D01*
X018819Y016684D01*
X018829Y016603D01*
X018835Y016522D01*
X018837Y016441D01*
X018835Y016360D01*
X018829Y016279D01*
X018819Y016198D01*
X018805Y016118D01*
X018787Y016039D01*
X018766Y015961D01*
X018740Y015884D01*
X018711Y015808D01*
X018678Y015734D01*
X018642Y015661D01*
X018602Y015591D01*
X018558Y015522D01*
X018512Y015456D01*
X018462Y015392D01*
X018409Y015330D01*
X018353Y015271D01*
X018294Y015215D01*
X018232Y015162D01*
X018168Y015112D01*
X018102Y015066D01*
X018033Y015022D01*
X017963Y014982D01*
X017890Y014946D01*
X017816Y014913D01*
X017740Y014884D01*
X017663Y014858D01*
X017585Y014837D01*
X017506Y014819D01*
X017426Y014805D01*
X017345Y014795D01*
X017264Y014789D01*
X017183Y014787D01*
X017102Y014789D01*
X017021Y014795D01*
X016940Y014805D01*
X016860Y014819D01*
X016781Y014837D01*
X016703Y014858D01*
X016626Y014884D01*
X016550Y014913D01*
X016476Y014946D01*
X016403Y014982D01*
X016333Y015022D01*
X016264Y015066D01*
X016198Y015112D01*
X016134Y015162D01*
X016072Y015215D01*
X016013Y015271D01*
X015957Y015330D01*
X015904Y015392D01*
X015854Y015456D01*
X015808Y015522D01*
X015764Y015591D01*
X015724Y015661D01*
X015688Y015734D01*
X015655Y015808D01*
X015626Y015884D01*
X015600Y015961D01*
X015579Y016039D01*
X015561Y016118D01*
X015547Y016198D01*
X015537Y016279D01*
X015531Y016360D01*
X015529Y016441D01*
X017157Y014555D02*
X018299Y014555D01*
X018299Y014319D01*
X018157Y013539D02*
X018124Y013498D01*
X018087Y013459D01*
X018048Y013423D01*
X018006Y013390D01*
X017962Y013361D01*
X017915Y013334D01*
X017868Y013311D01*
X017818Y013291D01*
X017767Y013275D01*
X017715Y013263D01*
X017663Y013255D01*
X017610Y013250D01*
X017557Y013249D01*
X017504Y013252D01*
X017451Y013259D01*
X017399Y013270D01*
X017347Y013284D01*
X017297Y013302D01*
X017249Y013324D01*
X017202Y013349D01*
X017157Y013377D01*
X017157Y013374D02*
X018299Y013374D01*
X018299Y013531D01*
X018601Y012809D02*
X017617Y012809D01*
X017617Y012690D01*
X018601Y012651D02*
X018601Y012809D01*
X018173Y014307D02*
X018147Y014351D01*
X018117Y014393D01*
X018085Y014432D01*
X018050Y014470D01*
X018012Y014504D01*
X017972Y014536D01*
X017930Y014565D01*
X017886Y014591D01*
X017840Y014613D01*
X017793Y014633D01*
X017744Y014648D01*
X017694Y014660D01*
X017644Y014669D01*
X017593Y014674D01*
X017542Y014675D01*
X017491Y014672D01*
X017440Y014666D01*
X017390Y014656D01*
X017340Y014643D01*
X017292Y014626D01*
X017245Y014606D01*
X017200Y014582D01*
X017156Y014555D01*
X016803Y014043D02*
X016803Y013886D01*
X017656Y011155D02*
X017656Y010997D01*
X018601Y010997D01*
X018601Y011155D01*
X018499Y010812D02*
X018499Y010655D01*
X018499Y010812D02*
X016766Y010812D01*
X016766Y010655D01*
X016766Y009868D02*
X016766Y009710D01*
X018499Y009710D01*
X018499Y009868D01*
X018729Y008805D02*
X018217Y008805D01*
X018729Y008805D02*
X019319Y008215D01*
X019319Y005459D01*
X018729Y004868D01*
X018217Y004868D01*
X016563Y004868D02*
X016051Y004868D01*
X015461Y005459D01*
X015461Y008215D01*
X016051Y008805D01*
X016563Y008805D01*
X014623Y005418D02*
X015214Y004827D01*
X015214Y004316D01*
X014623Y005418D02*
X011867Y005418D01*
X011277Y004827D01*
X011277Y004316D01*
X010545Y004338D02*
X010388Y004338D01*
X010545Y004338D02*
X010545Y002605D01*
X010388Y002605D01*
X009600Y002605D02*
X009443Y002605D01*
X009443Y004338D01*
X009600Y004338D01*
X009230Y004475D02*
X009073Y004475D01*
X009230Y004475D02*
X009230Y003531D01*
X009073Y003531D01*
X007577Y004475D02*
X007419Y004475D01*
X007419Y003491D01*
X007537Y003491D01*
X007354Y005224D02*
X006212Y005224D01*
X005858Y005736D02*
X005858Y005894D01*
X006212Y006405D02*
X007354Y006405D01*
X007354Y006169D01*
X007354Y005382D02*
X007354Y005224D01*
X007212Y005390D02*
X007179Y005349D01*
X007142Y005310D01*
X007103Y005274D01*
X007061Y005241D01*
X007017Y005212D01*
X006970Y005185D01*
X006923Y005162D01*
X006873Y005142D01*
X006822Y005126D01*
X006770Y005114D01*
X006718Y005106D01*
X006665Y005101D01*
X006612Y005100D01*
X006559Y005103D01*
X006506Y005110D01*
X006454Y005121D01*
X006402Y005135D01*
X006352Y005153D01*
X006304Y005175D01*
X006257Y005200D01*
X006212Y005228D01*
X006211Y006406D02*
X006255Y006433D01*
X006300Y006457D01*
X006347Y006477D01*
X006395Y006494D01*
X006445Y006507D01*
X006495Y006517D01*
X006546Y006523D01*
X006597Y006526D01*
X006648Y006525D01*
X006699Y006520D01*
X006749Y006511D01*
X006799Y006499D01*
X006848Y006484D01*
X006895Y006464D01*
X006941Y006442D01*
X006985Y006416D01*
X007027Y006387D01*
X007067Y006355D01*
X007105Y006321D01*
X007140Y006283D01*
X007172Y006244D01*
X007202Y006202D01*
X007228Y006158D01*
X005315Y006160D02*
X004725Y005569D01*
X004213Y005569D01*
X005315Y006160D02*
X005315Y008916D01*
X004725Y009506D01*
X004213Y009506D01*
X004455Y010679D02*
X004455Y010836D01*
X004455Y010679D02*
X002723Y010679D01*
X002723Y010836D01*
X002723Y011623D02*
X002723Y011781D01*
X004455Y011781D01*
X004455Y011623D01*
X004585Y011994D02*
X004585Y012151D01*
X004585Y011994D02*
X003640Y011994D01*
X003640Y012151D01*
X004585Y013647D02*
X004585Y013805D01*
X003601Y013805D01*
X003601Y013686D01*
X003220Y014201D02*
X004362Y014201D01*
X004362Y014358D01*
X004362Y015146D02*
X004362Y015382D01*
X003220Y015382D01*
X002866Y014870D02*
X002866Y014712D01*
X003219Y015382D02*
X003263Y015409D01*
X003308Y015433D01*
X003355Y015453D01*
X003403Y015470D01*
X003453Y015483D01*
X003503Y015493D01*
X003554Y015499D01*
X003605Y015502D01*
X003656Y015501D01*
X003707Y015496D01*
X003757Y015487D01*
X003807Y015475D01*
X003856Y015460D01*
X003903Y015440D01*
X003949Y015418D01*
X003993Y015392D01*
X004035Y015363D01*
X004075Y015331D01*
X004113Y015297D01*
X004148Y015259D01*
X004180Y015220D01*
X004210Y015178D01*
X004236Y015134D01*
X004220Y014366D02*
X004187Y014325D01*
X004150Y014286D01*
X004111Y014250D01*
X004069Y014217D01*
X004025Y014188D01*
X003978Y014161D01*
X003931Y014138D01*
X003881Y014118D01*
X003830Y014102D01*
X003778Y014090D01*
X003726Y014082D01*
X003673Y014077D01*
X003620Y014076D01*
X003567Y014079D01*
X003514Y014086D01*
X003462Y014097D01*
X003410Y014111D01*
X003360Y014129D01*
X003312Y014151D01*
X003265Y014176D01*
X003220Y014204D01*
X003084Y017455D02*
X003086Y017536D01*
X003092Y017617D01*
X003102Y017698D01*
X003116Y017778D01*
X003134Y017857D01*
X003155Y017935D01*
X003181Y018012D01*
X003210Y018088D01*
X003243Y018162D01*
X003279Y018235D01*
X003319Y018305D01*
X003363Y018374D01*
X003409Y018440D01*
X003459Y018504D01*
X003512Y018566D01*
X003568Y018625D01*
X003627Y018681D01*
X003689Y018734D01*
X003753Y018784D01*
X003819Y018830D01*
X003888Y018874D01*
X003958Y018914D01*
X004031Y018950D01*
X004105Y018983D01*
X004181Y019012D01*
X004258Y019038D01*
X004336Y019059D01*
X004415Y019077D01*
X004495Y019091D01*
X004576Y019101D01*
X004657Y019107D01*
X004738Y019109D01*
X004819Y019107D01*
X004900Y019101D01*
X004981Y019091D01*
X005061Y019077D01*
X005140Y019059D01*
X005218Y019038D01*
X005295Y019012D01*
X005371Y018983D01*
X005445Y018950D01*
X005518Y018914D01*
X005588Y018874D01*
X005657Y018830D01*
X005723Y018784D01*
X005787Y018734D01*
X005849Y018681D01*
X005908Y018625D01*
X005964Y018566D01*
X006017Y018504D01*
X006067Y018440D01*
X006113Y018374D01*
X006157Y018305D01*
X006197Y018235D01*
X006233Y018162D01*
X006266Y018088D01*
X006295Y018012D01*
X006321Y017935D01*
X006342Y017857D01*
X006360Y017778D01*
X006374Y017698D01*
X006384Y017617D01*
X006390Y017536D01*
X006392Y017455D01*
X006390Y017374D01*
X006384Y017293D01*
X006374Y017212D01*
X006360Y017132D01*
X006342Y017053D01*
X006321Y016975D01*
X006295Y016898D01*
X006266Y016822D01*
X006233Y016748D01*
X006197Y016675D01*
X006157Y016605D01*
X006113Y016536D01*
X006067Y016470D01*
X006017Y016406D01*
X005964Y016344D01*
X005908Y016285D01*
X005849Y016229D01*
X005787Y016176D01*
X005723Y016126D01*
X005657Y016080D01*
X005588Y016036D01*
X005518Y015996D01*
X005445Y015960D01*
X005371Y015927D01*
X005295Y015898D01*
X005218Y015872D01*
X005140Y015851D01*
X005061Y015833D01*
X004981Y015819D01*
X004900Y015809D01*
X004819Y015803D01*
X004738Y015801D01*
X004657Y015803D01*
X004576Y015809D01*
X004495Y015819D01*
X004415Y015833D01*
X004336Y015851D01*
X004258Y015872D01*
X004181Y015898D01*
X004105Y015927D01*
X004031Y015960D01*
X003958Y015996D01*
X003888Y016036D01*
X003819Y016080D01*
X003753Y016126D01*
X003689Y016176D01*
X003627Y016229D01*
X003568Y016285D01*
X003512Y016344D01*
X003459Y016406D01*
X003409Y016470D01*
X003363Y016536D01*
X003319Y016605D01*
X003279Y016675D01*
X003243Y016748D01*
X003210Y016822D01*
X003181Y016898D01*
X003155Y016975D01*
X003134Y017053D01*
X003116Y017132D01*
X003102Y017212D01*
X003092Y017293D01*
X003086Y017374D01*
X003084Y017455D01*
X002559Y009506D02*
X002047Y009506D01*
X001457Y008916D01*
X001457Y006160D01*
X002047Y005569D01*
X002559Y005569D01*
X003341Y003050D02*
X003343Y003131D01*
X003349Y003212D01*
X003359Y003293D01*
X003373Y003373D01*
X003391Y003452D01*
X003412Y003530D01*
X003438Y003607D01*
X003467Y003683D01*
X003500Y003757D01*
X003536Y003830D01*
X003576Y003900D01*
X003620Y003969D01*
X003666Y004035D01*
X003716Y004099D01*
X003769Y004161D01*
X003825Y004220D01*
X003884Y004276D01*
X003946Y004329D01*
X004010Y004379D01*
X004076Y004425D01*
X004145Y004469D01*
X004215Y004509D01*
X004288Y004545D01*
X004362Y004578D01*
X004438Y004607D01*
X004515Y004633D01*
X004593Y004654D01*
X004672Y004672D01*
X004752Y004686D01*
X004833Y004696D01*
X004914Y004702D01*
X004995Y004704D01*
X005076Y004702D01*
X005157Y004696D01*
X005238Y004686D01*
X005318Y004672D01*
X005397Y004654D01*
X005475Y004633D01*
X005552Y004607D01*
X005628Y004578D01*
X005702Y004545D01*
X005775Y004509D01*
X005845Y004469D01*
X005914Y004425D01*
X005980Y004379D01*
X006044Y004329D01*
X006106Y004276D01*
X006165Y004220D01*
X006221Y004161D01*
X006274Y004099D01*
X006324Y004035D01*
X006370Y003969D01*
X006414Y003900D01*
X006454Y003830D01*
X006490Y003757D01*
X006523Y003683D01*
X006552Y003607D01*
X006578Y003530D01*
X006599Y003452D01*
X006617Y003373D01*
X006631Y003293D01*
X006641Y003212D01*
X006647Y003131D01*
X006649Y003050D01*
X006647Y002969D01*
X006641Y002888D01*
X006631Y002807D01*
X006617Y002727D01*
X006599Y002648D01*
X006578Y002570D01*
X006552Y002493D01*
X006523Y002417D01*
X006490Y002343D01*
X006454Y002270D01*
X006414Y002200D01*
X006370Y002131D01*
X006324Y002065D01*
X006274Y002001D01*
X006221Y001939D01*
X006165Y001880D01*
X006106Y001824D01*
X006044Y001771D01*
X005980Y001721D01*
X005914Y001675D01*
X005845Y001631D01*
X005775Y001591D01*
X005702Y001555D01*
X005628Y001522D01*
X005552Y001493D01*
X005475Y001467D01*
X005397Y001446D01*
X005318Y001428D01*
X005238Y001414D01*
X005157Y001404D01*
X005076Y001398D01*
X004995Y001396D01*
X004914Y001398D01*
X004833Y001404D01*
X004752Y001414D01*
X004672Y001428D01*
X004593Y001446D01*
X004515Y001467D01*
X004438Y001493D01*
X004362Y001522D01*
X004288Y001555D01*
X004215Y001591D01*
X004145Y001631D01*
X004076Y001675D01*
X004010Y001721D01*
X003946Y001771D01*
X003884Y001824D01*
X003825Y001880D01*
X003769Y001939D01*
X003716Y002001D01*
X003666Y002065D01*
X003620Y002131D01*
X003576Y002200D01*
X003536Y002270D01*
X003500Y002343D01*
X003467Y002417D01*
X003438Y002493D01*
X003412Y002570D01*
X003391Y002648D01*
X003373Y002727D01*
X003359Y002807D01*
X003349Y002888D01*
X003343Y002969D01*
X003341Y003050D01*
X011277Y002662D02*
X011277Y002150D01*
X011867Y001560D01*
X014623Y001560D01*
X015214Y002150D01*
X015214Y002662D01*
X013110Y017181D02*
X011377Y017181D01*
X011377Y019149D01*
X013110Y019149D01*
X013110Y017181D01*
X012825Y017378D02*
X012827Y017396D01*
X012833Y017414D01*
X012842Y017430D01*
X012854Y017443D01*
X012869Y017454D01*
X012886Y017462D01*
X012904Y017466D01*
X012922Y017466D01*
X012940Y017462D01*
X012957Y017454D01*
X012972Y017443D01*
X012984Y017430D01*
X012993Y017414D01*
X012999Y017396D01*
X013001Y017378D01*
X012999Y017360D01*
X012993Y017342D01*
X012984Y017326D01*
X012972Y017313D01*
X012957Y017302D01*
X012940Y017294D01*
X012922Y017290D01*
X012904Y017290D01*
X012886Y017294D01*
X012869Y017302D01*
X012854Y017313D01*
X012842Y017326D01*
X012833Y017342D01*
X012827Y017360D01*
X012825Y017378D01*
D14*
X017278Y010694D02*
X017278Y009828D01*
X010427Y003117D02*
X009561Y003117D01*
X003235Y010797D02*
X003235Y011663D01*
D15*
X006156Y016786D02*
X006187Y016857D01*
X006215Y016929D01*
X006239Y017003D01*
X006260Y017077D01*
X006276Y017153D01*
X006290Y017229D01*
X006299Y017306D01*
X006304Y017383D01*
X006306Y017461D01*
X006304Y017538D01*
X006298Y017615D01*
X006288Y017692D01*
X006275Y017769D01*
X006257Y017844D01*
X006236Y017919D01*
X006212Y017992D01*
X006183Y018064D01*
X006152Y018135D01*
X006116Y018204D01*
X015765Y017110D02*
X015734Y017039D01*
X015706Y016967D01*
X015682Y016893D01*
X015661Y016819D01*
X015645Y016743D01*
X015631Y016667D01*
X015622Y016590D01*
X015617Y016513D01*
X015615Y016435D01*
X015617Y016358D01*
X015623Y016281D01*
X015633Y016204D01*
X015646Y016127D01*
X015664Y016052D01*
X015685Y015977D01*
X015709Y015904D01*
X015738Y015832D01*
X015769Y015761D01*
X015805Y015692D01*
X005665Y004468D02*
X005594Y004499D01*
X005522Y004527D01*
X005448Y004551D01*
X005374Y004572D01*
X005298Y004588D01*
X005222Y004602D01*
X005145Y004611D01*
X005068Y004616D01*
X004990Y004618D01*
X004913Y004616D01*
X004836Y004610D01*
X004759Y004600D01*
X004682Y004587D01*
X004607Y004569D01*
X004532Y004548D01*
X004459Y004524D01*
X004387Y004495D01*
X004316Y004464D01*
X004247Y004428D01*
D16*
X004300Y003783D02*
X004300Y003476D01*
X004300Y002366D02*
X004300Y002059D01*
X004147Y002212D02*
X004454Y002212D01*
X007819Y006910D02*
X007819Y007370D01*
X008049Y007370D01*
X008126Y007293D01*
X008126Y007140D01*
X008049Y007063D01*
X007819Y007063D01*
X007972Y007063D02*
X008126Y006910D01*
X008204Y013839D02*
X008051Y013992D01*
X008128Y013992D02*
X007898Y013992D01*
X007898Y013839D02*
X007898Y014299D01*
X008128Y014299D01*
X008204Y014222D01*
X008204Y014069D01*
X008128Y013992D01*
X005471Y018150D02*
X005164Y018150D01*
X004053Y018150D02*
X003746Y018150D01*
X003900Y018303D02*
X003900Y017997D01*
X016337Y015746D02*
X016644Y015746D01*
X017754Y015746D02*
X018061Y015746D01*
X017907Y015900D02*
X017907Y015593D01*
M02*
