G75*
G70*
%OFA0B0*%
%FSLAX24Y24*%
%IPPOS*%
%LPD*%
%AMOC8*
5,1,8,0,0,1.08239X$1,22.5*
%
%ADD10C,0.0000*%
%ADD11C,0.0780*%
%ADD12C,0.1380*%
%ADD13C,0.0710*%
%ADD14C,0.0820*%
%ADD15C,0.1025*%
D10*
X002197Y001169D02*
X018827Y001169D01*
X018828Y001169D02*
X018893Y001175D01*
X018958Y001185D01*
X019022Y001198D01*
X019085Y001215D01*
X019147Y001236D01*
X019208Y001260D01*
X019267Y001287D01*
X019325Y001318D01*
X019381Y001352D01*
X019435Y001389D01*
X019487Y001429D01*
X019537Y001472D01*
X019584Y001517D01*
X019628Y001565D01*
X019670Y001616D01*
X019708Y001669D01*
X019744Y001723D01*
X019777Y001780D01*
X019806Y001839D01*
X019832Y001899D01*
X019855Y001960D01*
X019874Y002023D01*
X019890Y002086D01*
X019902Y002151D01*
X019910Y002216D01*
X019915Y002281D01*
X019916Y002346D01*
X019913Y002412D01*
X019913Y018974D01*
X019911Y019037D01*
X019906Y019101D01*
X019896Y019164D01*
X019884Y019226D01*
X019867Y019287D01*
X019847Y019348D01*
X019824Y019407D01*
X019797Y019465D01*
X019767Y019520D01*
X019733Y019575D01*
X019697Y019627D01*
X019657Y019677D01*
X019615Y019724D01*
X019570Y019769D01*
X019523Y019811D01*
X019473Y019851D01*
X019421Y019887D01*
X019366Y019921D01*
X019311Y019951D01*
X019253Y019978D01*
X019194Y020001D01*
X019133Y020021D01*
X019072Y020038D01*
X019010Y020050D01*
X018947Y020060D01*
X018883Y020065D01*
X018820Y020067D01*
X002057Y020067D01*
X002057Y020066D02*
X001989Y020062D01*
X001923Y020054D01*
X001856Y020043D01*
X001791Y020028D01*
X001726Y020009D01*
X001663Y019986D01*
X001601Y019960D01*
X001540Y019931D01*
X001481Y019898D01*
X001425Y019862D01*
X001370Y019822D01*
X001317Y019780D01*
X001267Y019735D01*
X001220Y019687D01*
X001175Y019637D01*
X001134Y019584D01*
X001095Y019529D01*
X001060Y019472D01*
X001027Y019413D01*
X000998Y019352D01*
X000973Y019290D01*
X000951Y019226D01*
X000933Y019161D01*
X000918Y019096D01*
X000907Y019029D01*
X000900Y018962D01*
X000896Y018895D01*
X000897Y018828D01*
X000897Y002469D01*
X001529Y002427D02*
X001531Y002477D01*
X001537Y002527D01*
X001547Y002577D01*
X001560Y002625D01*
X001577Y002673D01*
X001598Y002719D01*
X001622Y002763D01*
X001650Y002805D01*
X001681Y002845D01*
X001715Y002882D01*
X001752Y002917D01*
X001791Y002948D01*
X001832Y002977D01*
X001876Y003002D01*
X001922Y003024D01*
X001969Y003042D01*
X002017Y003056D01*
X002066Y003067D01*
X002116Y003074D01*
X002166Y003077D01*
X002217Y003076D01*
X002267Y003071D01*
X002317Y003062D01*
X002365Y003050D01*
X002413Y003033D01*
X002459Y003013D01*
X002504Y002990D01*
X002547Y002963D01*
X002587Y002933D01*
X002625Y002900D01*
X002660Y002864D01*
X002693Y002825D01*
X002722Y002784D01*
X002748Y002741D01*
X002771Y002696D01*
X002790Y002649D01*
X002805Y002601D01*
X002817Y002552D01*
X002825Y002502D01*
X002829Y002452D01*
X002829Y002402D01*
X002825Y002352D01*
X002817Y002302D01*
X002805Y002253D01*
X002790Y002205D01*
X002771Y002158D01*
X002748Y002113D01*
X002722Y002070D01*
X002693Y002029D01*
X002660Y001990D01*
X002625Y001954D01*
X002587Y001921D01*
X002547Y001891D01*
X002504Y001864D01*
X002459Y001841D01*
X002413Y001821D01*
X002365Y001804D01*
X002317Y001792D01*
X002267Y001783D01*
X002217Y001778D01*
X002166Y001777D01*
X002116Y001780D01*
X002066Y001787D01*
X002017Y001798D01*
X001969Y001812D01*
X001922Y001830D01*
X001876Y001852D01*
X001832Y001877D01*
X001791Y001906D01*
X001752Y001937D01*
X001715Y001972D01*
X001681Y002009D01*
X001650Y002049D01*
X001622Y002091D01*
X001598Y002135D01*
X001577Y002181D01*
X001560Y002229D01*
X001547Y002277D01*
X001537Y002327D01*
X001531Y002377D01*
X001529Y002427D01*
X000897Y002469D02*
X000899Y002399D01*
X000905Y002328D01*
X000914Y002259D01*
X000927Y002190D01*
X000944Y002121D01*
X000965Y002054D01*
X000989Y001988D01*
X001017Y001923D01*
X001048Y001860D01*
X001083Y001799D01*
X001121Y001739D01*
X001162Y001682D01*
X001206Y001627D01*
X001253Y001575D01*
X001303Y001525D01*
X001355Y001478D01*
X001410Y001434D01*
X001467Y001393D01*
X001527Y001355D01*
X001588Y001320D01*
X001651Y001289D01*
X001716Y001261D01*
X001782Y001237D01*
X001849Y001216D01*
X001918Y001199D01*
X001987Y001186D01*
X002056Y001177D01*
X002127Y001171D01*
X002197Y001169D01*
X006133Y010618D02*
X006135Y010653D01*
X006141Y010688D01*
X006151Y010722D01*
X006164Y010755D01*
X006181Y010786D01*
X006202Y010814D01*
X006225Y010841D01*
X006252Y010864D01*
X006280Y010885D01*
X006311Y010902D01*
X006344Y010915D01*
X006378Y010925D01*
X006413Y010931D01*
X006448Y010933D01*
X006483Y010931D01*
X006518Y010925D01*
X006552Y010915D01*
X006585Y010902D01*
X006616Y010885D01*
X006644Y010864D01*
X006671Y010841D01*
X006694Y010814D01*
X006715Y010786D01*
X006732Y010755D01*
X006745Y010722D01*
X006755Y010688D01*
X006761Y010653D01*
X006763Y010618D01*
X006761Y010583D01*
X006755Y010548D01*
X006745Y010514D01*
X006732Y010481D01*
X006715Y010450D01*
X006694Y010422D01*
X006671Y010395D01*
X006644Y010372D01*
X006616Y010351D01*
X006585Y010334D01*
X006552Y010321D01*
X006518Y010311D01*
X006483Y010305D01*
X006448Y010303D01*
X006413Y010305D01*
X006378Y010311D01*
X006344Y010321D01*
X006311Y010334D01*
X006280Y010351D01*
X006252Y010372D01*
X006225Y010395D01*
X006202Y010422D01*
X006181Y010450D01*
X006164Y010481D01*
X006151Y010514D01*
X006141Y010548D01*
X006135Y010583D01*
X006133Y010618D01*
X001568Y018805D02*
X001570Y018855D01*
X001576Y018905D01*
X001586Y018955D01*
X001599Y019003D01*
X001616Y019051D01*
X001637Y019097D01*
X001661Y019141D01*
X001689Y019183D01*
X001720Y019223D01*
X001754Y019260D01*
X001791Y019295D01*
X001830Y019326D01*
X001871Y019355D01*
X001915Y019380D01*
X001961Y019402D01*
X002008Y019420D01*
X002056Y019434D01*
X002105Y019445D01*
X002155Y019452D01*
X002205Y019455D01*
X002256Y019454D01*
X002306Y019449D01*
X002356Y019440D01*
X002404Y019428D01*
X002452Y019411D01*
X002498Y019391D01*
X002543Y019368D01*
X002586Y019341D01*
X002626Y019311D01*
X002664Y019278D01*
X002699Y019242D01*
X002732Y019203D01*
X002761Y019162D01*
X002787Y019119D01*
X002810Y019074D01*
X002829Y019027D01*
X002844Y018979D01*
X002856Y018930D01*
X002864Y018880D01*
X002868Y018830D01*
X002868Y018780D01*
X002864Y018730D01*
X002856Y018680D01*
X002844Y018631D01*
X002829Y018583D01*
X002810Y018536D01*
X002787Y018491D01*
X002761Y018448D01*
X002732Y018407D01*
X002699Y018368D01*
X002664Y018332D01*
X002626Y018299D01*
X002586Y018269D01*
X002543Y018242D01*
X002498Y018219D01*
X002452Y018199D01*
X002404Y018182D01*
X002356Y018170D01*
X002306Y018161D01*
X002256Y018156D01*
X002205Y018155D01*
X002155Y018158D01*
X002105Y018165D01*
X002056Y018176D01*
X002008Y018190D01*
X001961Y018208D01*
X001915Y018230D01*
X001871Y018255D01*
X001830Y018284D01*
X001791Y018315D01*
X001754Y018350D01*
X001720Y018387D01*
X001689Y018427D01*
X001661Y018469D01*
X001637Y018513D01*
X001616Y018559D01*
X001599Y018607D01*
X001586Y018655D01*
X001576Y018705D01*
X001570Y018755D01*
X001568Y018805D01*
X014243Y010618D02*
X014245Y010653D01*
X014251Y010688D01*
X014261Y010722D01*
X014274Y010755D01*
X014291Y010786D01*
X014312Y010814D01*
X014335Y010841D01*
X014362Y010864D01*
X014390Y010885D01*
X014421Y010902D01*
X014454Y010915D01*
X014488Y010925D01*
X014523Y010931D01*
X014558Y010933D01*
X014593Y010931D01*
X014628Y010925D01*
X014662Y010915D01*
X014695Y010902D01*
X014726Y010885D01*
X014754Y010864D01*
X014781Y010841D01*
X014804Y010814D01*
X014825Y010786D01*
X014842Y010755D01*
X014855Y010722D01*
X014865Y010688D01*
X014871Y010653D01*
X014873Y010618D01*
X014871Y010583D01*
X014865Y010548D01*
X014855Y010514D01*
X014842Y010481D01*
X014825Y010450D01*
X014804Y010422D01*
X014781Y010395D01*
X014754Y010372D01*
X014726Y010351D01*
X014695Y010334D01*
X014662Y010321D01*
X014628Y010311D01*
X014593Y010305D01*
X014558Y010303D01*
X014523Y010305D01*
X014488Y010311D01*
X014454Y010321D01*
X014421Y010334D01*
X014390Y010351D01*
X014362Y010372D01*
X014335Y010395D01*
X014312Y010422D01*
X014291Y010450D01*
X014274Y010481D01*
X014261Y010514D01*
X014251Y010548D01*
X014245Y010583D01*
X014243Y010618D01*
X018056Y018829D02*
X018058Y018879D01*
X018064Y018929D01*
X018074Y018979D01*
X018087Y019027D01*
X018104Y019075D01*
X018125Y019121D01*
X018149Y019165D01*
X018177Y019207D01*
X018208Y019247D01*
X018242Y019284D01*
X018279Y019319D01*
X018318Y019350D01*
X018359Y019379D01*
X018403Y019404D01*
X018449Y019426D01*
X018496Y019444D01*
X018544Y019458D01*
X018593Y019469D01*
X018643Y019476D01*
X018693Y019479D01*
X018744Y019478D01*
X018794Y019473D01*
X018844Y019464D01*
X018892Y019452D01*
X018940Y019435D01*
X018986Y019415D01*
X019031Y019392D01*
X019074Y019365D01*
X019114Y019335D01*
X019152Y019302D01*
X019187Y019266D01*
X019220Y019227D01*
X019249Y019186D01*
X019275Y019143D01*
X019298Y019098D01*
X019317Y019051D01*
X019332Y019003D01*
X019344Y018954D01*
X019352Y018904D01*
X019356Y018854D01*
X019356Y018804D01*
X019352Y018754D01*
X019344Y018704D01*
X019332Y018655D01*
X019317Y018607D01*
X019298Y018560D01*
X019275Y018515D01*
X019249Y018472D01*
X019220Y018431D01*
X019187Y018392D01*
X019152Y018356D01*
X019114Y018323D01*
X019074Y018293D01*
X019031Y018266D01*
X018986Y018243D01*
X018940Y018223D01*
X018892Y018206D01*
X018844Y018194D01*
X018794Y018185D01*
X018744Y018180D01*
X018693Y018179D01*
X018643Y018182D01*
X018593Y018189D01*
X018544Y018200D01*
X018496Y018214D01*
X018449Y018232D01*
X018403Y018254D01*
X018359Y018279D01*
X018318Y018308D01*
X018279Y018339D01*
X018242Y018374D01*
X018208Y018411D01*
X018177Y018451D01*
X018149Y018493D01*
X018125Y018537D01*
X018104Y018583D01*
X018087Y018631D01*
X018074Y018679D01*
X018064Y018729D01*
X018058Y018779D01*
X018056Y018829D01*
X018056Y002372D02*
X018058Y002422D01*
X018064Y002472D01*
X018074Y002522D01*
X018087Y002570D01*
X018104Y002618D01*
X018125Y002664D01*
X018149Y002708D01*
X018177Y002750D01*
X018208Y002790D01*
X018242Y002827D01*
X018279Y002862D01*
X018318Y002893D01*
X018359Y002922D01*
X018403Y002947D01*
X018449Y002969D01*
X018496Y002987D01*
X018544Y003001D01*
X018593Y003012D01*
X018643Y003019D01*
X018693Y003022D01*
X018744Y003021D01*
X018794Y003016D01*
X018844Y003007D01*
X018892Y002995D01*
X018940Y002978D01*
X018986Y002958D01*
X019031Y002935D01*
X019074Y002908D01*
X019114Y002878D01*
X019152Y002845D01*
X019187Y002809D01*
X019220Y002770D01*
X019249Y002729D01*
X019275Y002686D01*
X019298Y002641D01*
X019317Y002594D01*
X019332Y002546D01*
X019344Y002497D01*
X019352Y002447D01*
X019356Y002397D01*
X019356Y002347D01*
X019352Y002297D01*
X019344Y002247D01*
X019332Y002198D01*
X019317Y002150D01*
X019298Y002103D01*
X019275Y002058D01*
X019249Y002015D01*
X019220Y001974D01*
X019187Y001935D01*
X019152Y001899D01*
X019114Y001866D01*
X019074Y001836D01*
X019031Y001809D01*
X018986Y001786D01*
X018940Y001766D01*
X018892Y001749D01*
X018844Y001737D01*
X018794Y001728D01*
X018744Y001723D01*
X018693Y001722D01*
X018643Y001725D01*
X018593Y001732D01*
X018544Y001743D01*
X018496Y001757D01*
X018449Y001775D01*
X018403Y001797D01*
X018359Y001822D01*
X018318Y001851D01*
X018279Y001882D01*
X018242Y001917D01*
X018208Y001954D01*
X018177Y001994D01*
X018149Y002036D01*
X018125Y002080D01*
X018104Y002126D01*
X018087Y002174D01*
X018074Y002222D01*
X018064Y002272D01*
X018058Y002322D01*
X018056Y002372D01*
D11*
X004995Y002342D03*
X004995Y003759D03*
X016474Y016441D03*
X017891Y016441D03*
X005447Y017455D03*
X004029Y017455D03*
D12*
X002218Y018805D03*
X002179Y002427D03*
X018706Y002372D03*
X018706Y018829D03*
D13*
X014558Y010618D03*
X006448Y010618D03*
D14*
X007098Y016900D03*
X008046Y016970D03*
X008146Y017970D03*
X008046Y018970D03*
X007098Y018040D03*
X014902Y018004D03*
X015002Y019004D03*
X015002Y017004D03*
X014902Y016004D03*
X015002Y015004D03*
X014902Y014004D03*
D15*
X013810Y011720D03*
X012708Y011720D03*
X012669Y012823D03*
X011566Y012823D03*
X010464Y012823D03*
X009362Y012823D03*
X008259Y012823D03*
X008299Y011720D03*
X009401Y011720D03*
X010503Y011720D03*
X011606Y011720D03*
X011606Y010618D03*
X010503Y010618D03*
X009401Y010618D03*
X008299Y010618D03*
X008338Y009516D03*
X009440Y009516D03*
X010543Y009516D03*
X010543Y008413D03*
X009440Y008413D03*
X008338Y008413D03*
X007236Y009516D03*
X007196Y011720D03*
X011645Y009516D03*
X012747Y009516D03*
X012708Y010618D03*
X013850Y009516D03*
X012747Y008413D03*
X011645Y008413D03*
M02*
