<?xml version="1.0" encoding="UTF-8" standalone="no"?>
<!-- Created with Inkscape (http://www.inkscape.org/) -->

<svg
   xmlns:dc="http://purl.org/dc/elements/1.1/"
   xmlns:cc="http://creativecommons.org/ns#"
   xmlns:rdf="http://www.w3.org/1999/02/22-rdf-syntax-ns#"
   xmlns:svg="http://www.w3.org/2000/svg"
   xmlns="http://www.w3.org/2000/svg"
   xmlns:sodipodi="http://sodipodi.sourceforge.net/DTD/sodipodi-0.dtd"
   xmlns:inkscape="http://www.inkscape.org/namespaces/inkscape"
   id="svg4356"
   version="1.1"
   inkscape:version="0.48.0 r9654"
   width="193.75"
   height="195"
   xml:space="preserve"
   sodipodi:docname="PT4115 Breakout_cream.pdf"><metadata
     id="metadata4362"><rdf:RDF><cc:Work
         rdf:about=""><dc:format>image/svg+xml</dc:format><dc:type
           rdf:resource="http://purl.org/dc/dcmitype/StillImage" /><dc:title></dc:title></cc:Work></rdf:RDF></metadata><defs
     id="defs4360" /><sodipodi:namedview
     pagecolor="#ffffff"
     bordercolor="#666666"
     borderopacity="1"
     objecttolerance="10"
     gridtolerance="10"
     guidetolerance="10"
     inkscape:pageopacity="0"
     inkscape:pageshadow="2"
     inkscape:window-width="990"
     inkscape:window-height="702"
     id="namedview4358"
     showgrid="false"
     inkscape:zoom="1.8928705"
     inkscape:cx="105.64728"
     inkscape:cy="114.2318"
     inkscape:window-x="0"
     inkscape:window-y="0"
     inkscape:window-maximized="0"
     inkscape:current-layer="g4364" /><g
     id="g4364"
     inkscape:groupmode="layer"
     inkscape:label="PT4115 Breakout_cream"
     transform="matrix(1.25,0,0,-1.25,0,195)"><path
       inkscape:connector-curvature="0"
       id="path4368"
       style="fill:#000000;fill-opacity:1;fill-rule:nonzero;stroke:none"
       d="m 20.514969,65.792412 7.65351,0 0,4.677192 -7.65351,0 0,-4.677192 z" /><path
       inkscape:connector-curvature="0"
       id="path4370"
       style="fill:#000000;fill-opacity:1;fill-rule:nonzero;stroke:none"
       d="m 20.514969,38.013372 7.65351,0 0,4.677192 -7.65351,0 0,-4.677192 z" /><path
       inkscape:connector-curvature="0"
       id="path4372"
       style="fill:#000000;fill-opacity:1;fill-rule:nonzero;stroke:none"
       d="m 17.93835,79.123752 3.826404,0 0,3.401712 -3.826404,0 0,-3.401712 z" /><path
       inkscape:connector-curvature="0"
       id="path4374"
       style="fill:#000000;fill-opacity:1;fill-rule:nonzero;stroke:none"
       d="m 29.560614,79.123752 3.826404,0 0,3.401712 -3.826404,0 0,-3.401712 z" /><path
       inkscape:connector-curvature="0"
       id="path4376"
       style="fill:#000000;fill-opacity:1;fill-rule:nonzero;stroke:none"
       d="m 12.892734,86.068953 3.826404,0 0,4.251798 -3.826404,0 0,-4.251798 z" /><path
       inkscape:connector-curvature="0"
       id="path4378"
       style="fill:#000000;fill-opacity:1;fill-rule:nonzero;stroke:none"
       d="m 12.892734,95.140232 3.826404,0 0,4.251795 -3.826404,0 0,-4.251795 z" /><path
       inkscape:connector-curvature="0"
       id="path4380"
       style="fill:#000000;fill-opacity:1;fill-rule:nonzero;stroke:none"
       d="m 33.968037,92.311987 2.550942,0 0,1.063125 -2.550942,0 0,-1.063125 z" /><path
       inkscape:connector-curvature="0"
       id="path4382"
       style="fill:#000000;fill-opacity:1;fill-rule:nonzero;stroke:none"
       d="m 33.968037,88.060388 2.550942,0 0,1.063125 -2.550942,0 0,-1.063125 z" /><path
       inkscape:connector-curvature="0"
       id="path4384"
       style="fill:#000000;fill-opacity:1;fill-rule:nonzero;stroke:none"
       d="m 33.968037,96.564307 2.550942,0 0,1.063125 -2.550942,0 0,-1.063125 z" /><path
       inkscape:connector-curvature="0"
       id="path4386"
       style="fill:#000000;fill-opacity:1;fill-rule:nonzero;stroke:none"
       d="m 22.629837,88.060388 2.550942,0 0,1.063125 -2.550942,0 0,-1.063125 z" /><path
       inkscape:connector-curvature="0"
       id="path4388"
       style="fill:#000000;fill-opacity:1;fill-rule:nonzero;stroke:none"
       d="m 22.629837,96.564307 2.550942,0 0,1.063125 -2.550942,0 0,-1.063125 z" /><path
       inkscape:connector-curvature="0"
       id="path4390"
       style="fill:#000000;fill-opacity:1;fill-rule:nonzero;stroke:none"
       d="m 23.551047,91.461945 8.078202,0 0,2.76399 -8.078202,0 0,-2.76399 z" /><path
       inkscape:connector-curvature="0"
       id="path4392"
       style="fill:#000000;fill-opacity:1;fill-rule:nonzero;stroke:none"
       d="m 79.098252,21.263097 4.677192,0 0,7.65351 -4.677192,0 0,-7.65351 z" /><path
       inkscape:connector-curvature="0"
       id="path4394"
       style="fill:#000000;fill-opacity:1;fill-rule:nonzero;stroke:none"
       d="m 106.87825,21.263097 4.6772,0 0,7.65351 -4.6772,0 0,-7.65351 z" /><path
       inkscape:connector-curvature="0"
       id="path4396"
       style="fill:#000000;fill-opacity:1;fill-rule:nonzero;stroke:none"
       d="m 70.217592,17.099286 3.401712,0 0,3.826404 -3.401712,0 0,-3.826404 z" /><path
       inkscape:connector-curvature="0"
       id="path4398"
       style="fill:#000000;fill-opacity:1;fill-rule:nonzero;stroke:none"
       d="m 70.217592,28.721574 3.401712,0 0,3.826404 -3.401712,0 0,-3.826404 z" /><path
       inkscape:connector-curvature="0"
       id="path4400"
       style="fill:#000000;fill-opacity:1;fill-rule:nonzero;stroke:none"
       d="m 61.685433,13.867734 4.251798,0 0,3.826404 -4.251798,0 0,-3.826404 z" /><path
       inkscape:connector-curvature="0"
       id="path4402"
       style="fill:#000000;fill-opacity:1;fill-rule:nonzero;stroke:none"
       d="m 52.614153,13.867734 4.251798,0 0,3.826404 -4.251798,0 0,-3.826404 z" /><path
       inkscape:connector-curvature="0"
       id="path4404"
       style="fill:#000000;fill-opacity:1;fill-rule:nonzero;stroke:none"
       d="m 59.368147,33.186117 1.063125,0 0,2.550942 -1.063125,0 0,-2.550942 z" /><path
       inkscape:connector-curvature="0"
       id="path4406"
       style="fill:#000000;fill-opacity:1;fill-rule:nonzero;stroke:none"
       d="m 63.619748,33.186117 1.063125,0 0,2.550942 -1.063125,0 0,-2.550942 z" /><path
       inkscape:connector-curvature="0"
       id="path4408"
       style="fill:#000000;fill-opacity:1;fill-rule:nonzero;stroke:none"
       d="m 55.115588,33.186117 1.063125,0 0,2.550942 -1.063125,0 0,-2.550942 z" /><path
       inkscape:connector-curvature="0"
       id="path4410"
       style="fill:#000000;fill-opacity:1;fill-rule:nonzero;stroke:none"
       d="m 63.619748,21.847029 1.063125,0 0,2.550942 -1.063125,0 0,-2.550942 z" /><path
       inkscape:connector-curvature="0"
       id="path4412"
       style="fill:#000000;fill-opacity:1;fill-rule:nonzero;stroke:none"
       d="m 55.115588,21.847029 1.063125,0 0,2.550942 -1.063125,0 0,-2.550942 z" /><path
       inkscape:connector-curvature="0"
       id="path4414"
       style="fill:#000000;fill-opacity:1;fill-rule:nonzero;stroke:none"
       d="m 58.517145,22.768356 2.76399,0 0,8.078904 -2.76399,0 0,-8.078904 z" /><path
       inkscape:connector-curvature="0"
       id="path4416"
       style="fill:#000000;fill-opacity:1;fill-rule:nonzero;stroke:none"
       d="m 121.34303,60.746652 7.6535,0 0,4.677192 -7.6535,0 0,-4.677192 z" /><path
       inkscape:connector-curvature="0"
       id="path4418"
       style="fill:#000000;fill-opacity:1;fill-rule:nonzero;stroke:none"
       d="m 121.34303,32.967612 7.6535,0 0,4.677192 -7.6535,0 0,-4.677192 z" /><path
       inkscape:connector-curvature="0"
       id="path4420"
       style="fill:#000000;fill-opacity:1;fill-rule:nonzero;stroke:none"
       d="m 119.04977,72.150792 3.82711,0 0,3.401712 -3.82711,0 0,-3.401712 z" /><path
       inkscape:connector-curvature="0"
       id="path4422"
       style="fill:#000000;fill-opacity:1;fill-rule:nonzero;stroke:none"
       d="m 130.67201,72.150792 3.82711,0 0,3.401712 -3.82711,0 0,-3.401712 z" /><path
       inkscape:connector-curvature="0"
       id="path4424"
       style="fill:#000000;fill-opacity:1;fill-rule:nonzero;stroke:none"
       d="m 114.03293,79.15227 3.82641,0 0,4.2525 -3.82641,0 0,-4.2525 z" /><path
       inkscape:connector-curvature="0"
       id="path4426"
       style="fill:#000000;fill-opacity:1;fill-rule:nonzero;stroke:none"
       d="m 114.03293,88.223433 3.82641,0 0,4.251798 -3.82641,0 0,-4.251798 z" /><path
       inkscape:connector-curvature="0"
       id="path4428"
       style="fill:#000000;fill-opacity:1;fill-rule:nonzero;stroke:none"
       d="m 134.88132,85.14091 2.55094,0 0,1.062422 -2.55094,0 0,-1.062422 z" /><path
       inkscape:connector-curvature="0"
       id="path4430"
       style="fill:#000000;fill-opacity:1;fill-rule:nonzero;stroke:none"
       d="m 134.88132,80.888468 2.55094,0 0,1.063125 -2.55094,0 0,-1.063125 z" /><path
       inkscape:connector-curvature="0"
       id="path4432"
       style="fill:#000000;fill-opacity:1;fill-rule:nonzero;stroke:none"
       d="m 134.88132,89.392387 2.55094,0 0,1.063125 -2.55094,0 0,-1.063125 z" /><path
       inkscape:connector-curvature="0"
       id="path4434"
       style="fill:#000000;fill-opacity:1;fill-rule:nonzero;stroke:none"
       d="m 123.54324,80.888468 2.55094,0 0,1.063125 -2.55094,0 0,-1.063125 z" /><path
       inkscape:connector-curvature="0"
       id="path4436"
       style="fill:#000000;fill-opacity:1;fill-rule:nonzero;stroke:none"
       d="m 123.54324,89.392387 2.55094,0 0,1.063125 -2.55094,0 0,-1.063125 z" /><path
       inkscape:connector-curvature="0"
       id="path4438"
       style="fill:#000000;fill-opacity:1;fill-rule:nonzero;stroke:none"
       d="m 124.46445,84.290025 8.0782,0 0,2.76399 -8.0782,0 0,-2.76399 z" /><path
       inkscape:connector-curvature="0"
       id="path4440"
       style="fill:#000000;fill-opacity:1;fill-rule:nonzero;stroke:none"
       d="m 73.460553,42.120786 4.251798,0 0,8.503596 -4.251798,0 0,-8.503596 z" /><path
       inkscape:connector-curvature="0"
       id="path4442"
       style="fill:#000000;fill-opacity:1;fill-rule:nonzero;stroke:none"
       d="m 81.964473,42.120786 4.251798,0 0,8.503596 -4.251798,0 0,-8.503596 z" /><path
       inkscape:connector-curvature="0"
       id="path4444"
       style="fill:#000000;fill-opacity:1;fill-rule:nonzero;stroke:none"
       d="m 64.956393,42.120786 4.251798,0 0,8.503596 -4.251798,0 0,-8.503596 z" /><path
       inkscape:connector-curvature="0"
       id="path4446"
       style="fill:#000000;fill-opacity:1;fill-rule:nonzero;stroke:none"
       d="m 73.460553,102.21535 4.251798,0 0,8.50359 -4.251798,0 0,-8.50359 z" /><path
       inkscape:connector-curvature="0"
       id="path4448"
       style="fill:#000000;fill-opacity:1;fill-rule:nonzero;stroke:none"
       d="m 64.956393,102.21535 4.251798,0 0,8.50359 -4.251798,0 0,-8.50359 z" /><path
       inkscape:connector-curvature="0"
       id="path4450"
       style="fill:#000000;fill-opacity:1;fill-rule:nonzero;stroke:none"
       d="m 81.964473,102.21535 4.251798,0 0,8.50359 -4.251798,0 0,-8.50359 z" /><path
       inkscape:connector-curvature="0"
       id="path4452"
       style="fill:#000000;fill-opacity:1;fill-rule:nonzero;stroke:none"
       d="m 95.36151,130.3352 3.0825,0 0,0.85008 -3.0825,0 0,-0.85008 z" /><path
       inkscape:connector-curvature="0"
       id="path4454"
       style="fill:#000000;fill-opacity:1;fill-rule:nonzero;stroke:none"
       d="m 95.36151,132.1772 3.0825,0 0,0.85008 -3.0825,0 0,-0.85008 z" /><path
       inkscape:connector-curvature="0"
       id="path4456"
       style="fill:#000000;fill-opacity:1;fill-rule:nonzero;stroke:none"
       d="m 95.36151,134.01956 3.0825,0 0,0.85077 -3.0825,0 0,-0.85077 z" /><path
       inkscape:connector-curvature="0"
       id="path4458"
       style="fill:#000000;fill-opacity:1;fill-rule:nonzero;stroke:none"
       d="m 95.36151,135.86264 3.0825,0 0,0.85008 -3.0825,0 0,-0.85008 z" /><path
       inkscape:connector-curvature="0"
       id="path4460"
       style="fill:#000000;fill-opacity:1;fill-rule:nonzero;stroke:none"
       d="m 95.36151,128.49212 3.0825,0 0,0.85077 -3.0825,0 0,-0.85077 z" /><path
       inkscape:connector-curvature="0"
       id="path4462"
       style="fill:#000000;fill-opacity:1;fill-rule:nonzero;stroke:none"
       d="m 95.36151,126.64976 3.0825,0 0,0.85008 -3.0825,0 0,-0.85008 z" /><path
       inkscape:connector-curvature="0"
       id="path4464"
       style="fill:#000000;fill-opacity:1;fill-rule:nonzero;stroke:none"
       d="m 95.36151,124.80692 3.0825,0 0,0.85077 -3.0825,0 0,-0.85077 z" /><path
       inkscape:connector-curvature="0"
       id="path4466"
       style="fill:#000000;fill-opacity:1;fill-rule:nonzero;stroke:none"
       d="m 77.78727,130.3352 3.0825,0 0,0.85008 -3.0825,0 0,-0.85008 z" /><path
       inkscape:connector-curvature="0"
       id="path4468"
       style="fill:#000000;fill-opacity:1;fill-rule:nonzero;stroke:none"
       d="m 77.78727,132.1772 3.0825,0 0,0.85008 -3.0825,0 0,-0.85008 z" /><path
       inkscape:connector-curvature="0"
       id="path4470"
       style="fill:#000000;fill-opacity:1;fill-rule:nonzero;stroke:none"
       d="m 77.78727,134.01956 3.0825,0 0,0.85077 -3.0825,0 0,-0.85077 z" /><path
       inkscape:connector-curvature="0"
       id="path4472"
       style="fill:#000000;fill-opacity:1;fill-rule:nonzero;stroke:none"
       d="m 77.78727,135.86264 3.0825,0 0,0.85008 -3.0825,0 0,-0.85008 z" /><path
       inkscape:connector-curvature="0"
       id="path4474"
       style="fill:#000000;fill-opacity:1;fill-rule:nonzero;stroke:none"
       d="m 77.78727,128.49212 3.0825,0 0,0.85077 -3.0825,0 0,-0.85077 z" /><path
       inkscape:connector-curvature="0"
       id="path4476"
       style="fill:#000000;fill-opacity:1;fill-rule:nonzero;stroke:none"
       d="m 77.78727,126.64976 3.0825,0 0,0.85008 -3.0825,0 0,-0.85008 z" /><path
       inkscape:connector-curvature="0"
       id="path4478"
       style="fill:#000000;fill-opacity:1;fill-rule:nonzero;stroke:none"
       d="m 77.78727,124.80692 3.0825,0 0,0.85077 -3.0825,0 0,-0.85077 z" /><path
       inkscape:connector-curvature="0"
       id="path4480"
       style="fill:#000000;fill-opacity:1;fill-rule:nonzero;stroke:none"
       d="m 84.464517,116.89271 2.550942,0 0,2.55165 -2.550942,0 0,-2.55165 z" /><path
       inkscape:connector-curvature="0"
       id="path4482"
       style="fill:#000000;fill-opacity:1;fill-rule:nonzero;stroke:none"
       d="m 90.133674,116.89271 2.551644,0 0,2.55165 -2.551644,0 0,-2.55165 z" /><path
       inkscape:connector-curvature="0"
       id="path4484"
       style="fill:#000000;fill-opacity:1;fill-rule:nonzero;stroke:none"
       d="m 69.639114,120.85559 2.551644,0 0,2.55165 -2.551644,0 0,-2.55165 z" /><path
       inkscape:connector-curvature="0"
       id="path4486"
       style="fill:#000000;fill-opacity:1;fill-rule:nonzero;stroke:none"
       d="m 63.969957,120.85559 2.550942,0 0,2.55165 -2.550942,0 0,-2.55165 z" /><path
       inkscape:connector-curvature="0"
       id="path4488"
       style="fill:#000000;fill-opacity:1;fill-rule:nonzero;stroke:none"
       d="m 69.616554,128.24868 2.551644,0 0,2.55094 -2.551644,0 0,-2.55094 z" /><path
       inkscape:connector-curvature="0"
       id="path4490"
       style="fill:#000000;fill-opacity:1;fill-rule:nonzero;stroke:none"
       d="m 63.947397,128.24868 2.550942,0 0,2.55094 -2.550942,0 0,-2.55094 z" /><path
       inkscape:connector-curvature="0"
       id="path4492"
       style="fill:#000000;fill-opacity:1;fill-rule:nonzero;stroke:none"
       d="m 63.927717,135.29207 2.550942,0 0,2.55165 -2.550942,0 0,-2.55165 z" /><path
       inkscape:connector-curvature="0"
       id="path4494"
       style="fill:#000000;fill-opacity:1;fill-rule:nonzero;stroke:none"
       d="m 69.596757,135.29207 2.550942,0 0,2.55165 -2.550942,0 0,-2.55165 z" /><path
       inkscape:connector-curvature="0"
       id="path4496"
       style="fill:#000000;fill-opacity:1;fill-rule:nonzero;stroke:none"
       d="m 128.984,98.530153 3.18867,0 0,3.401717 -3.18867,0 0,-3.401717 z" /><path
       inkscape:connector-curvature="0"
       id="path4498"
       style="fill:#000000;fill-opacity:1;fill-rule:nonzero;stroke:none"
       d="m 119.949,102.07356 2.55094,0 0,2.55094 -2.55094,0 0,-2.55094 z" /><path
       inkscape:connector-curvature="0"
       id="path4500"
       style="fill:#000000;fill-opacity:1;fill-rule:nonzero;stroke:none"
       d="m 119.949,96.403674 2.55094,0 0,2.551644 -2.55094,0 0,-2.551644 z" /><path
       inkscape:connector-curvature="0"
       id="path4502"
       style="fill:#000000;fill-opacity:1;fill-rule:nonzero;stroke:none"
       d="m 50.180604,39.852792 3.189384,0 0,3.401712 -3.189384,0 0,-3.401712 z" /><path
       inkscape:connector-curvature="0"
       id="path4504"
       style="fill:#000000;fill-opacity:1;fill-rule:nonzero;stroke:none"
       d="m 41.145477,43.396437 2.550942,0 0,2.550942 -2.550942,0 0,-2.550942 z" /><path
       inkscape:connector-curvature="0"
       id="path4506"
       style="fill:#000000;fill-opacity:1;fill-rule:nonzero;stroke:none"
       d="m 41.145477,37.726554 2.550942,0 0,2.551644 -2.550942,0 0,-2.551644 z" /><path
       inkscape:connector-curvature="0"
       id="path4508"
       style="fill:#000000;fill-opacity:1;fill-rule:nonzero;stroke:none"
       d="m 28.637604,104.483 3.188664,0 0,3.40101 -3.188664,0 0,-3.40101 z" /><path
       inkscape:connector-curvature="0"
       id="path4510"
       style="fill:#000000;fill-opacity:1;fill-rule:nonzero;stroke:none"
       d="m 19.601826,108.02591 2.551644,0 0,2.55165 -2.551644,0 0,-2.55165 z" /><path
       inkscape:connector-curvature="0"
       id="path4512"
       style="fill:#000000;fill-opacity:1;fill-rule:nonzero;stroke:none"
       d="m 19.601826,102.35676 2.551644,0 0,2.55094 -2.551644,0 0,-2.55094 z" /></g></svg>