G75*
G70*
%OFA0B0*%
%FSLAX24Y24*%
%IPPOS*%
%LPD*%
%AMOC8*
5,1,8,0,0,1.08239X$1,22.5*
%
%ADD10C,0.0000*%
%ADD11R,0.1497X0.0946*%
%ADD12R,0.0789X0.0710*%
%ADD13R,0.0789X0.0867*%
%ADD14C,0.0780*%
%ADD15R,0.0552X0.0277*%
%ADD16R,0.1576X0.0592*%
%ADD17R,0.0946X0.1497*%
%ADD18R,0.0710X0.0789*%
%ADD19R,0.0867X0.0789*%
%ADD20R,0.0277X0.0552*%
%ADD21R,0.0592X0.1576*%
%ADD22C,0.1380*%
%ADD23C,0.0710*%
%ADD24R,0.0867X0.1655*%
%ADD25C,0.0050*%
%ADD26R,0.0651X0.0237*%
%ADD27R,0.0552X0.0552*%
%ADD28C,0.0820*%
%ADD29R,0.0671X0.0710*%
%ADD30C,0.1025*%
D10*
X002197Y001169D02*
X018827Y001169D01*
X018828Y001169D02*
X018893Y001175D01*
X018958Y001185D01*
X019022Y001198D01*
X019085Y001215D01*
X019147Y001236D01*
X019208Y001260D01*
X019267Y001287D01*
X019325Y001318D01*
X019381Y001352D01*
X019435Y001389D01*
X019487Y001429D01*
X019537Y001472D01*
X019584Y001517D01*
X019628Y001565D01*
X019670Y001616D01*
X019708Y001669D01*
X019744Y001723D01*
X019777Y001780D01*
X019806Y001839D01*
X019832Y001899D01*
X019855Y001960D01*
X019874Y002023D01*
X019890Y002086D01*
X019902Y002151D01*
X019910Y002216D01*
X019915Y002281D01*
X019916Y002346D01*
X019913Y002412D01*
X019913Y018974D01*
X019911Y019037D01*
X019906Y019101D01*
X019896Y019164D01*
X019884Y019226D01*
X019867Y019287D01*
X019847Y019348D01*
X019824Y019407D01*
X019797Y019465D01*
X019767Y019520D01*
X019733Y019575D01*
X019697Y019627D01*
X019657Y019677D01*
X019615Y019724D01*
X019570Y019769D01*
X019523Y019811D01*
X019473Y019851D01*
X019421Y019887D01*
X019366Y019921D01*
X019311Y019951D01*
X019253Y019978D01*
X019194Y020001D01*
X019133Y020021D01*
X019072Y020038D01*
X019010Y020050D01*
X018947Y020060D01*
X018883Y020065D01*
X018820Y020067D01*
X002057Y020067D01*
X002057Y020066D02*
X001989Y020062D01*
X001923Y020054D01*
X001856Y020043D01*
X001791Y020028D01*
X001726Y020009D01*
X001663Y019986D01*
X001601Y019960D01*
X001540Y019931D01*
X001481Y019898D01*
X001425Y019862D01*
X001370Y019822D01*
X001317Y019780D01*
X001267Y019735D01*
X001220Y019687D01*
X001175Y019637D01*
X001134Y019584D01*
X001095Y019529D01*
X001060Y019472D01*
X001027Y019413D01*
X000998Y019352D01*
X000973Y019290D01*
X000951Y019226D01*
X000933Y019161D01*
X000918Y019096D01*
X000907Y019029D01*
X000900Y018962D01*
X000896Y018895D01*
X000897Y018828D01*
X000897Y002469D01*
X001529Y002427D02*
X001531Y002477D01*
X001537Y002527D01*
X001547Y002577D01*
X001560Y002625D01*
X001577Y002673D01*
X001598Y002719D01*
X001622Y002763D01*
X001650Y002805D01*
X001681Y002845D01*
X001715Y002882D01*
X001752Y002917D01*
X001791Y002948D01*
X001832Y002977D01*
X001876Y003002D01*
X001922Y003024D01*
X001969Y003042D01*
X002017Y003056D01*
X002066Y003067D01*
X002116Y003074D01*
X002166Y003077D01*
X002217Y003076D01*
X002267Y003071D01*
X002317Y003062D01*
X002365Y003050D01*
X002413Y003033D01*
X002459Y003013D01*
X002504Y002990D01*
X002547Y002963D01*
X002587Y002933D01*
X002625Y002900D01*
X002660Y002864D01*
X002693Y002825D01*
X002722Y002784D01*
X002748Y002741D01*
X002771Y002696D01*
X002790Y002649D01*
X002805Y002601D01*
X002817Y002552D01*
X002825Y002502D01*
X002829Y002452D01*
X002829Y002402D01*
X002825Y002352D01*
X002817Y002302D01*
X002805Y002253D01*
X002790Y002205D01*
X002771Y002158D01*
X002748Y002113D01*
X002722Y002070D01*
X002693Y002029D01*
X002660Y001990D01*
X002625Y001954D01*
X002587Y001921D01*
X002547Y001891D01*
X002504Y001864D01*
X002459Y001841D01*
X002413Y001821D01*
X002365Y001804D01*
X002317Y001792D01*
X002267Y001783D01*
X002217Y001778D01*
X002166Y001777D01*
X002116Y001780D01*
X002066Y001787D01*
X002017Y001798D01*
X001969Y001812D01*
X001922Y001830D01*
X001876Y001852D01*
X001832Y001877D01*
X001791Y001906D01*
X001752Y001937D01*
X001715Y001972D01*
X001681Y002009D01*
X001650Y002049D01*
X001622Y002091D01*
X001598Y002135D01*
X001577Y002181D01*
X001560Y002229D01*
X001547Y002277D01*
X001537Y002327D01*
X001531Y002377D01*
X001529Y002427D01*
X000897Y002469D02*
X000899Y002399D01*
X000905Y002328D01*
X000914Y002259D01*
X000927Y002190D01*
X000944Y002121D01*
X000965Y002054D01*
X000989Y001988D01*
X001017Y001923D01*
X001048Y001860D01*
X001083Y001799D01*
X001121Y001739D01*
X001162Y001682D01*
X001206Y001627D01*
X001253Y001575D01*
X001303Y001525D01*
X001355Y001478D01*
X001410Y001434D01*
X001467Y001393D01*
X001527Y001355D01*
X001588Y001320D01*
X001651Y001289D01*
X001716Y001261D01*
X001782Y001237D01*
X001849Y001216D01*
X001918Y001199D01*
X001987Y001186D01*
X002056Y001177D01*
X002127Y001171D01*
X002197Y001169D01*
X006133Y010618D02*
X006135Y010653D01*
X006141Y010688D01*
X006151Y010722D01*
X006164Y010755D01*
X006181Y010786D01*
X006202Y010814D01*
X006225Y010841D01*
X006252Y010864D01*
X006280Y010885D01*
X006311Y010902D01*
X006344Y010915D01*
X006378Y010925D01*
X006413Y010931D01*
X006448Y010933D01*
X006483Y010931D01*
X006518Y010925D01*
X006552Y010915D01*
X006585Y010902D01*
X006616Y010885D01*
X006644Y010864D01*
X006671Y010841D01*
X006694Y010814D01*
X006715Y010786D01*
X006732Y010755D01*
X006745Y010722D01*
X006755Y010688D01*
X006761Y010653D01*
X006763Y010618D01*
X006761Y010583D01*
X006755Y010548D01*
X006745Y010514D01*
X006732Y010481D01*
X006715Y010450D01*
X006694Y010422D01*
X006671Y010395D01*
X006644Y010372D01*
X006616Y010351D01*
X006585Y010334D01*
X006552Y010321D01*
X006518Y010311D01*
X006483Y010305D01*
X006448Y010303D01*
X006413Y010305D01*
X006378Y010311D01*
X006344Y010321D01*
X006311Y010334D01*
X006280Y010351D01*
X006252Y010372D01*
X006225Y010395D01*
X006202Y010422D01*
X006181Y010450D01*
X006164Y010481D01*
X006151Y010514D01*
X006141Y010548D01*
X006135Y010583D01*
X006133Y010618D01*
X001568Y018805D02*
X001570Y018855D01*
X001576Y018905D01*
X001586Y018955D01*
X001599Y019003D01*
X001616Y019051D01*
X001637Y019097D01*
X001661Y019141D01*
X001689Y019183D01*
X001720Y019223D01*
X001754Y019260D01*
X001791Y019295D01*
X001830Y019326D01*
X001871Y019355D01*
X001915Y019380D01*
X001961Y019402D01*
X002008Y019420D01*
X002056Y019434D01*
X002105Y019445D01*
X002155Y019452D01*
X002205Y019455D01*
X002256Y019454D01*
X002306Y019449D01*
X002356Y019440D01*
X002404Y019428D01*
X002452Y019411D01*
X002498Y019391D01*
X002543Y019368D01*
X002586Y019341D01*
X002626Y019311D01*
X002664Y019278D01*
X002699Y019242D01*
X002732Y019203D01*
X002761Y019162D01*
X002787Y019119D01*
X002810Y019074D01*
X002829Y019027D01*
X002844Y018979D01*
X002856Y018930D01*
X002864Y018880D01*
X002868Y018830D01*
X002868Y018780D01*
X002864Y018730D01*
X002856Y018680D01*
X002844Y018631D01*
X002829Y018583D01*
X002810Y018536D01*
X002787Y018491D01*
X002761Y018448D01*
X002732Y018407D01*
X002699Y018368D01*
X002664Y018332D01*
X002626Y018299D01*
X002586Y018269D01*
X002543Y018242D01*
X002498Y018219D01*
X002452Y018199D01*
X002404Y018182D01*
X002356Y018170D01*
X002306Y018161D01*
X002256Y018156D01*
X002205Y018155D01*
X002155Y018158D01*
X002105Y018165D01*
X002056Y018176D01*
X002008Y018190D01*
X001961Y018208D01*
X001915Y018230D01*
X001871Y018255D01*
X001830Y018284D01*
X001791Y018315D01*
X001754Y018350D01*
X001720Y018387D01*
X001689Y018427D01*
X001661Y018469D01*
X001637Y018513D01*
X001616Y018559D01*
X001599Y018607D01*
X001586Y018655D01*
X001576Y018705D01*
X001570Y018755D01*
X001568Y018805D01*
X014243Y010618D02*
X014245Y010653D01*
X014251Y010688D01*
X014261Y010722D01*
X014274Y010755D01*
X014291Y010786D01*
X014312Y010814D01*
X014335Y010841D01*
X014362Y010864D01*
X014390Y010885D01*
X014421Y010902D01*
X014454Y010915D01*
X014488Y010925D01*
X014523Y010931D01*
X014558Y010933D01*
X014593Y010931D01*
X014628Y010925D01*
X014662Y010915D01*
X014695Y010902D01*
X014726Y010885D01*
X014754Y010864D01*
X014781Y010841D01*
X014804Y010814D01*
X014825Y010786D01*
X014842Y010755D01*
X014855Y010722D01*
X014865Y010688D01*
X014871Y010653D01*
X014873Y010618D01*
X014871Y010583D01*
X014865Y010548D01*
X014855Y010514D01*
X014842Y010481D01*
X014825Y010450D01*
X014804Y010422D01*
X014781Y010395D01*
X014754Y010372D01*
X014726Y010351D01*
X014695Y010334D01*
X014662Y010321D01*
X014628Y010311D01*
X014593Y010305D01*
X014558Y010303D01*
X014523Y010305D01*
X014488Y010311D01*
X014454Y010321D01*
X014421Y010334D01*
X014390Y010351D01*
X014362Y010372D01*
X014335Y010395D01*
X014312Y010422D01*
X014291Y010450D01*
X014274Y010481D01*
X014261Y010514D01*
X014251Y010548D01*
X014245Y010583D01*
X014243Y010618D01*
X018056Y018829D02*
X018058Y018879D01*
X018064Y018929D01*
X018074Y018979D01*
X018087Y019027D01*
X018104Y019075D01*
X018125Y019121D01*
X018149Y019165D01*
X018177Y019207D01*
X018208Y019247D01*
X018242Y019284D01*
X018279Y019319D01*
X018318Y019350D01*
X018359Y019379D01*
X018403Y019404D01*
X018449Y019426D01*
X018496Y019444D01*
X018544Y019458D01*
X018593Y019469D01*
X018643Y019476D01*
X018693Y019479D01*
X018744Y019478D01*
X018794Y019473D01*
X018844Y019464D01*
X018892Y019452D01*
X018940Y019435D01*
X018986Y019415D01*
X019031Y019392D01*
X019074Y019365D01*
X019114Y019335D01*
X019152Y019302D01*
X019187Y019266D01*
X019220Y019227D01*
X019249Y019186D01*
X019275Y019143D01*
X019298Y019098D01*
X019317Y019051D01*
X019332Y019003D01*
X019344Y018954D01*
X019352Y018904D01*
X019356Y018854D01*
X019356Y018804D01*
X019352Y018754D01*
X019344Y018704D01*
X019332Y018655D01*
X019317Y018607D01*
X019298Y018560D01*
X019275Y018515D01*
X019249Y018472D01*
X019220Y018431D01*
X019187Y018392D01*
X019152Y018356D01*
X019114Y018323D01*
X019074Y018293D01*
X019031Y018266D01*
X018986Y018243D01*
X018940Y018223D01*
X018892Y018206D01*
X018844Y018194D01*
X018794Y018185D01*
X018744Y018180D01*
X018693Y018179D01*
X018643Y018182D01*
X018593Y018189D01*
X018544Y018200D01*
X018496Y018214D01*
X018449Y018232D01*
X018403Y018254D01*
X018359Y018279D01*
X018318Y018308D01*
X018279Y018339D01*
X018242Y018374D01*
X018208Y018411D01*
X018177Y018451D01*
X018149Y018493D01*
X018125Y018537D01*
X018104Y018583D01*
X018087Y018631D01*
X018074Y018679D01*
X018064Y018729D01*
X018058Y018779D01*
X018056Y018829D01*
X018056Y002372D02*
X018058Y002422D01*
X018064Y002472D01*
X018074Y002522D01*
X018087Y002570D01*
X018104Y002618D01*
X018125Y002664D01*
X018149Y002708D01*
X018177Y002750D01*
X018208Y002790D01*
X018242Y002827D01*
X018279Y002862D01*
X018318Y002893D01*
X018359Y002922D01*
X018403Y002947D01*
X018449Y002969D01*
X018496Y002987D01*
X018544Y003001D01*
X018593Y003012D01*
X018643Y003019D01*
X018693Y003022D01*
X018744Y003021D01*
X018794Y003016D01*
X018844Y003007D01*
X018892Y002995D01*
X018940Y002978D01*
X018986Y002958D01*
X019031Y002935D01*
X019074Y002908D01*
X019114Y002878D01*
X019152Y002845D01*
X019187Y002809D01*
X019220Y002770D01*
X019249Y002729D01*
X019275Y002686D01*
X019298Y002641D01*
X019317Y002594D01*
X019332Y002546D01*
X019344Y002497D01*
X019352Y002447D01*
X019356Y002397D01*
X019356Y002347D01*
X019352Y002297D01*
X019344Y002247D01*
X019332Y002198D01*
X019317Y002150D01*
X019298Y002103D01*
X019275Y002058D01*
X019249Y002015D01*
X019220Y001974D01*
X019187Y001935D01*
X019152Y001899D01*
X019114Y001866D01*
X019074Y001836D01*
X019031Y001809D01*
X018986Y001786D01*
X018940Y001766D01*
X018892Y001749D01*
X018844Y001737D01*
X018794Y001728D01*
X018744Y001723D01*
X018693Y001722D01*
X018643Y001725D01*
X018593Y001732D01*
X018544Y001743D01*
X018496Y001757D01*
X018449Y001775D01*
X018403Y001797D01*
X018359Y001822D01*
X018318Y001851D01*
X018279Y001882D01*
X018242Y001917D01*
X018208Y001954D01*
X018177Y001994D01*
X018149Y002036D01*
X018125Y002080D01*
X018104Y002126D01*
X018087Y002174D01*
X018074Y002222D01*
X018064Y002272D01*
X018058Y002322D01*
X018056Y002372D01*
D11*
X017390Y004908D03*
X017390Y008766D03*
X003386Y009467D03*
X003386Y005609D03*
D12*
X002762Y011230D03*
X004377Y011230D03*
X016806Y010261D03*
X018420Y010261D03*
D13*
X016109Y011293D03*
X016109Y012553D03*
X002062Y012253D03*
X002062Y013513D03*
D14*
X004029Y017455D03*
X005447Y017455D03*
X016238Y016441D03*
X017655Y016441D03*
X004995Y003759D03*
X004995Y002342D03*
D15*
X004900Y012309D03*
X004900Y012899D03*
X004900Y013490D03*
X003325Y013490D03*
X003325Y012309D03*
X017341Y012494D03*
X017341Y011312D03*
X018916Y011312D03*
X018916Y011903D03*
X018916Y012494D03*
D16*
X017853Y011903D03*
X003837Y012899D03*
D17*
X011316Y003489D03*
X015174Y003489D03*
D18*
X009994Y004259D03*
X009994Y002645D03*
D19*
X008868Y002196D03*
X007608Y002196D03*
D20*
X007734Y003216D03*
X008915Y003216D03*
X008915Y004790D03*
X008325Y004790D03*
X007734Y004790D03*
D21*
X008325Y003727D03*
D22*
X002179Y002427D03*
X002218Y018805D03*
X018706Y018829D03*
X018706Y002372D03*
D23*
X014558Y010618D03*
X006448Y010618D03*
D24*
X009322Y006445D03*
X010503Y006445D03*
X011684Y006445D03*
X011684Y014791D03*
X010503Y014791D03*
X009322Y014791D03*
D25*
X007747Y013374D02*
X007545Y013361D01*
X007346Y013322D01*
X007154Y013258D01*
X006971Y013169D01*
X006802Y013058D01*
X006648Y012926D01*
X006512Y012776D01*
X006397Y012609D01*
X006304Y012429D01*
X006235Y012238D01*
X006191Y012040D01*
X006173Y011838D01*
X006173Y011012D01*
X006566Y011012D01*
X006635Y011006D01*
X006701Y010988D01*
X006763Y010959D01*
X006819Y010920D01*
X006868Y010871D01*
X006907Y010815D01*
X006936Y010753D01*
X006954Y010686D01*
X006960Y010618D01*
X006954Y010550D01*
X006936Y010483D01*
X006907Y010421D01*
X006868Y010365D01*
X006819Y010316D01*
X006763Y010277D01*
X006701Y010248D01*
X006635Y010230D01*
X006566Y010224D01*
X006173Y010224D01*
X006173Y009437D01*
X006186Y009231D01*
X006226Y009029D01*
X006292Y008834D01*
X006384Y008649D01*
X006498Y008478D01*
X006634Y008323D01*
X006789Y008187D01*
X006960Y008073D01*
X007145Y007982D01*
X007340Y007916D01*
X007542Y007876D01*
X007747Y007862D01*
X013259Y007862D01*
X013465Y007876D01*
X013667Y007916D01*
X013862Y007982D01*
X014047Y008073D01*
X014218Y008187D01*
X014373Y008323D01*
X014509Y008478D01*
X014623Y008649D01*
X014714Y008834D01*
X014780Y009029D01*
X014821Y009231D01*
X014834Y009437D01*
X014834Y010224D01*
X014480Y010224D01*
X014411Y010230D01*
X014345Y010248D01*
X014283Y010277D01*
X014227Y010316D01*
X014178Y010365D01*
X014139Y010421D01*
X014110Y010483D01*
X014092Y010550D01*
X014086Y010618D01*
X014092Y010686D01*
X014110Y010753D01*
X014139Y010815D01*
X014178Y010871D01*
X014227Y010920D01*
X014283Y010959D01*
X014345Y010988D01*
X014411Y011006D01*
X014480Y011012D01*
X014834Y011012D01*
X014834Y011799D01*
X014821Y012005D01*
X014780Y012207D01*
X014714Y012402D01*
X014623Y012586D01*
X014509Y012758D01*
X014373Y012913D01*
X014218Y013048D01*
X014047Y013163D01*
X013862Y013254D01*
X013667Y013320D01*
X013465Y013360D01*
X013259Y013374D01*
X007747Y013374D01*
X007508Y013354D02*
X013499Y013354D01*
X013712Y013305D02*
X007295Y013305D01*
X007151Y013256D02*
X013855Y013256D01*
X013955Y013208D02*
X007051Y013208D01*
X006956Y013159D02*
X014052Y013159D01*
X014125Y013111D02*
X006882Y013111D01*
X006808Y013062D02*
X014197Y013062D01*
X014257Y013014D02*
X006750Y013014D01*
X006693Y012965D02*
X014313Y012965D01*
X014368Y012917D02*
X006639Y012917D01*
X006595Y012868D02*
X014412Y012868D01*
X014454Y012820D02*
X006551Y012820D01*
X006509Y012771D02*
X014497Y012771D01*
X014532Y012722D02*
X006475Y012722D01*
X006441Y012674D02*
X014565Y012674D01*
X014597Y012625D02*
X006408Y012625D01*
X006380Y012577D02*
X014628Y012577D01*
X014652Y012528D02*
X006355Y012528D01*
X006330Y012480D02*
X014676Y012480D01*
X014700Y012431D02*
X006305Y012431D01*
X006287Y012383D02*
X014721Y012383D01*
X014737Y012334D02*
X006269Y012334D01*
X006252Y012286D02*
X014754Y012286D01*
X014770Y012237D02*
X006234Y012237D01*
X006224Y012188D02*
X014784Y012188D01*
X014794Y012140D02*
X006213Y012140D01*
X006202Y012091D02*
X014803Y012091D01*
X014813Y012043D02*
X006191Y012043D01*
X006187Y011994D02*
X014821Y011994D01*
X014824Y011946D02*
X006182Y011946D01*
X006178Y011897D02*
X014828Y011897D01*
X014831Y011849D02*
X006174Y011849D01*
X006173Y011800D02*
X014834Y011800D01*
X014834Y011752D02*
X006173Y011752D01*
X006173Y011703D02*
X014834Y011703D01*
X014834Y011654D02*
X006173Y011654D01*
X006173Y011606D02*
X014834Y011606D01*
X014834Y011557D02*
X006173Y011557D01*
X006173Y011509D02*
X014834Y011509D01*
X014834Y011460D02*
X006173Y011460D01*
X006173Y011412D02*
X014834Y011412D01*
X014834Y011363D02*
X006173Y011363D01*
X006173Y011315D02*
X014834Y011315D01*
X014834Y011266D02*
X006173Y011266D01*
X006173Y011218D02*
X014834Y011218D01*
X014834Y011169D02*
X006173Y011169D01*
X006173Y011121D02*
X014834Y011121D01*
X014834Y011072D02*
X006173Y011072D01*
X006173Y011023D02*
X014834Y011023D01*
X014317Y010975D02*
X006729Y010975D01*
X006810Y010926D02*
X014236Y010926D01*
X014185Y010878D02*
X006861Y010878D01*
X006897Y010829D02*
X014149Y010829D01*
X014123Y010781D02*
X006923Y010781D01*
X006942Y010732D02*
X014104Y010732D01*
X014092Y010684D02*
X006954Y010684D01*
X006958Y010635D02*
X014087Y010635D01*
X014089Y010587D02*
X006957Y010587D01*
X006951Y010538D02*
X014095Y010538D01*
X014108Y010489D02*
X006938Y010489D01*
X006916Y010441D02*
X014130Y010441D01*
X014159Y010392D02*
X006887Y010392D01*
X006847Y010344D02*
X014199Y010344D01*
X014257Y010295D02*
X006789Y010295D01*
X006696Y010247D02*
X014350Y010247D01*
X014834Y010198D02*
X006173Y010198D01*
X006173Y010150D02*
X014834Y010150D01*
X014834Y010101D02*
X006173Y010101D01*
X006173Y010053D02*
X014834Y010053D01*
X014834Y010004D02*
X006173Y010004D01*
X006173Y009955D02*
X014834Y009955D01*
X014834Y009907D02*
X006173Y009907D01*
X006173Y009858D02*
X014834Y009858D01*
X014834Y009810D02*
X006173Y009810D01*
X006173Y009761D02*
X014834Y009761D01*
X014834Y009713D02*
X006173Y009713D01*
X006173Y009664D02*
X014834Y009664D01*
X014834Y009616D02*
X006173Y009616D01*
X006173Y009567D02*
X014834Y009567D01*
X014834Y009519D02*
X006173Y009519D01*
X006173Y009470D02*
X014834Y009470D01*
X014833Y009421D02*
X006174Y009421D01*
X006177Y009373D02*
X014830Y009373D01*
X014827Y009324D02*
X006180Y009324D01*
X006183Y009276D02*
X014823Y009276D01*
X014820Y009227D02*
X006187Y009227D01*
X006196Y009179D02*
X014810Y009179D01*
X014800Y009130D02*
X006206Y009130D01*
X006216Y009082D02*
X014791Y009082D01*
X014781Y009033D02*
X006225Y009033D01*
X006241Y008985D02*
X014765Y008985D01*
X014749Y008936D02*
X006258Y008936D01*
X006274Y008888D02*
X014732Y008888D01*
X014716Y008839D02*
X006291Y008839D01*
X006314Y008790D02*
X014693Y008790D01*
X014669Y008742D02*
X006338Y008742D01*
X006362Y008693D02*
X014645Y008693D01*
X014620Y008645D02*
X006387Y008645D01*
X006419Y008596D02*
X014587Y008596D01*
X014555Y008548D02*
X006452Y008548D01*
X006484Y008499D02*
X014523Y008499D01*
X014484Y008451D02*
X006522Y008451D01*
X006565Y008402D02*
X014442Y008402D01*
X014399Y008354D02*
X006607Y008354D01*
X006655Y008305D02*
X014352Y008305D01*
X014296Y008256D02*
X006710Y008256D01*
X006765Y008208D02*
X014241Y008208D01*
X014176Y008159D02*
X006831Y008159D01*
X006903Y008111D02*
X014103Y008111D01*
X014025Y008062D02*
X006982Y008062D01*
X007080Y008014D02*
X013926Y008014D01*
X013813Y007965D02*
X007194Y007965D01*
X007337Y007917D02*
X013670Y007917D01*
X013352Y007868D02*
X007655Y007868D01*
D26*
X011023Y017397D03*
X011023Y017653D03*
X011023Y017909D03*
X011023Y018165D03*
X011023Y018421D03*
X011023Y018677D03*
X011023Y018933D03*
X013464Y018933D03*
X013464Y018677D03*
X013464Y018421D03*
X013464Y018165D03*
X013464Y017909D03*
X013464Y017653D03*
X013464Y017397D03*
D27*
X012701Y016416D03*
X011914Y016416D03*
X009854Y016967D03*
X009067Y016967D03*
X009064Y017994D03*
X009851Y017994D03*
X009849Y018972D03*
X009061Y018972D03*
X002905Y015185D03*
X002905Y014397D03*
X005897Y006209D03*
X005897Y005421D03*
X016842Y013571D03*
X016842Y014358D03*
D28*
X008046Y016970D03*
X008146Y017970D03*
X008046Y018970D03*
X007098Y018040D03*
X007098Y016900D03*
D29*
X004204Y014752D03*
X007196Y005775D03*
X018141Y013925D03*
D30*
X013810Y011720D03*
X012708Y011720D03*
X012669Y012823D03*
X011566Y012823D03*
X010464Y012823D03*
X009362Y012823D03*
X008259Y012823D03*
X008299Y011720D03*
X009401Y011720D03*
X010503Y011720D03*
X011606Y011720D03*
X011606Y010618D03*
X010503Y010618D03*
X009401Y010618D03*
X008299Y010618D03*
X008338Y009516D03*
X009440Y009516D03*
X010543Y009516D03*
X010543Y008413D03*
X009440Y008413D03*
X008338Y008413D03*
X007236Y009516D03*
X007196Y011720D03*
X011645Y009516D03*
X012747Y009516D03*
X012708Y010618D03*
X013850Y009516D03*
X012747Y008413D03*
X011645Y008413D03*
M02*
