<?xml version="1.0" encoding="UTF-8" standalone="no"?>
<!-- Created with Inkscape (http://www.inkscape.org/) -->

<svg
   xmlns:dc="http://purl.org/dc/elements/1.1/"
   xmlns:cc="http://creativecommons.org/ns#"
   xmlns:rdf="http://www.w3.org/1999/02/22-rdf-syntax-ns#"
   xmlns:svg="http://www.w3.org/2000/svg"
   xmlns="http://www.w3.org/2000/svg"
   xmlns:sodipodi="http://sodipodi.sourceforge.net/DTD/sodipodi-0.dtd"
   xmlns:inkscape="http://www.inkscape.org/namespaces/inkscape"
   id="svg3515"
   version="1.1"
   inkscape:version="0.48.2 r9819"
   width="156.25"
   height="155"
   xml:space="preserve"
   sodipodi:docname="PT4115 Breakout_cream.eps"><metadata
     id="metadata3521"><rdf:RDF><cc:Work
         rdf:about=""><dc:format>image/svg+xml</dc:format><dc:type
           rdf:resource="http://purl.org/dc/dcmitype/StillImage" /><dc:title></dc:title></cc:Work></rdf:RDF></metadata><defs
     id="defs3519" /><sodipodi:namedview
     pagecolor="#ffffff"
     bordercolor="#666666"
     borderopacity="1"
     objecttolerance="10"
     gridtolerance="10"
     guidetolerance="10"
     inkscape:pageopacity="0"
     inkscape:pageshadow="2"
     inkscape:window-width="916"
     inkscape:window-height="700"
     id="namedview3517"
     showgrid="false"
     inkscape:zoom="2.8284271"
     inkscape:cx="82.302151"
     inkscape:cy="77.5"
     inkscape:window-x="0"
     inkscape:window-y="0"
     inkscape:window-maximized="0"
     inkscape:current-layer="g3523" /><g
     id="g3523"
     inkscape:groupmode="layer"
     inkscape:label="ink_ext_XXXXXX"
     transform="matrix(1.25,0,0,-1.25,0,155)"><path
       inkscape:connector-curvature="0"
       id="path3527"
       style="fill:#000000;fill-opacity:1;fill-rule:nonzero;stroke:none"
       d="m 5.46094,65.6398 3.30508,0 0,2.93828 -3.30508,0 0,-2.93828 z" /><path
       inkscape:connector-curvature="0"
       id="path3529"
       style="fill:#000000;fill-opacity:1;fill-rule:nonzero;stroke:none"
       d="m 17.082,65.6398 3.30508,0 0,2.93828 -3.30508,0 0,-2.93828 z" /><path
       inkscape:connector-curvature="0"
       id="path3531"
       style="fill:#000000;fill-opacity:1;fill-rule:nonzero;stroke:none"
       d="m 0.414063,72.6441 3.30508,0 0,3.67578 -3.30508,0 0,-3.67578 z" /><path
       inkscape:connector-curvature="0"
       id="path3533"
       style="fill:#000000;fill-opacity:1;fill-rule:nonzero;stroke:none"
       d="m 0.414063,81.7148 3.30508,0 0,3.67227 -3.30508,0 0,-3.67227 z" /><path
       inkscape:connector-curvature="0"
       id="path3535"
       style="fill:#000000;fill-opacity:1;fill-rule:nonzero;stroke:none"
       d="m 21.402,78.6719 2.20313,0 0,0.917969 -2.20313,0 0,-0.917969 z" /><path
       inkscape:connector-curvature="0"
       id="path3537"
       style="fill:#000000;fill-opacity:1;fill-rule:nonzero;stroke:none"
       d="m 21.402,74.418 2.20313,0 0,0.917969 -2.20313,0 0,-0.917969 z" /><path
       inkscape:connector-curvature="0"
       id="path3539"
       style="fill:#000000;fill-opacity:1;fill-rule:nonzero;stroke:none"
       d="m 21.402,82.9219 2.20313,0 0,0.917969 -2.20313,0 0,-0.917969 z" /><path
       inkscape:connector-curvature="0"
       id="path3541"
       style="fill:#000000;fill-opacity:1;fill-rule:nonzero;stroke:none"
       d="m 10.0629,74.418 2.20313,0 0,0.917969 -2.20313,0 0,-0.917969 z" /><path
       inkscape:connector-curvature="0"
       id="path3543"
       style="fill:#000000;fill-opacity:1;fill-rule:nonzero;stroke:none"
       d="m 10.0629,82.9219 2.20313,0 0,0.917969 -2.20313,0 0,-0.917969 z" /><path
       inkscape:connector-curvature="0"
       id="path3545"
       style="fill:#000000;fill-opacity:1;fill-rule:nonzero;stroke:none"
       d="m 11.7109,78.0551 6.28125,0 0,2.14805 -6.28125,0 0,-2.14805 z" /><path
       inkscape:connector-curvature="0"
       id="path3547"
       style="fill:#000000;fill-opacity:1;fill-rule:nonzero;stroke:none"
       d="m 57.7109,3.64414 2.93789,0 0,3.30469 -2.93789,0 0,-3.30469 z" /><path
       inkscape:connector-curvature="0"
       id="path3549"
       style="fill:#000000;fill-opacity:1;fill-rule:nonzero;stroke:none"
       d="m 57.7109,15.2648 2.93789,0 0,3.30508 -2.93789,0 0,-3.30508 z" /><path
       inkscape:connector-curvature="0"
       id="path3551"
       style="fill:#000000;fill-opacity:1;fill-rule:nonzero;stroke:none"
       d="m 49.234,0.414063 3.67617,0 0,3.30508 -3.67617,0 0,-3.30508 z" /><path
       inkscape:connector-curvature="0"
       id="path3553"
       style="fill:#000000;fill-opacity:1;fill-rule:nonzero;stroke:none"
       d="m 40.1641,0.414063 3.67188,0 0,3.30508 -3.67188,0 0,-3.30508 z" /><path
       inkscape:connector-curvature="0"
       id="path3555"
       style="fill:#000000;fill-opacity:1;fill-rule:nonzero;stroke:none"
       d="m 46.6988,19.6449 0.922266,0 0,2.20703 -0.922266,0 0,-2.20703 z" /><path
       inkscape:connector-curvature="0"
       id="path3557"
       style="fill:#000000;fill-opacity:1;fill-rule:nonzero;stroke:none"
       d="m 50.9488,19.6449 0.922266,0 0,2.20703 -0.922266,0 0,-2.20703 z" /><path
       inkscape:connector-curvature="0"
       id="path3559"
       style="fill:#000000;fill-opacity:1;fill-rule:nonzero;stroke:none"
       d="m 42.4449,19.6449 0.922266,0 0,2.20703 -0.922266,0 0,-2.20703 z" /><path
       inkscape:connector-curvature="0"
       id="path3561"
       style="fill:#000000;fill-opacity:1;fill-rule:nonzero;stroke:none"
       d="m 50.9488,8.30898 0.922266,0 0,2.20313 -0.922266,0 0,-2.20313 z" /><path
       inkscape:connector-curvature="0"
       id="path3563"
       style="fill:#000000;fill-opacity:1;fill-rule:nonzero;stroke:none"
       d="m 42.4449,8.30898 0.922266,0 0,2.20313 -0.922266,0 0,-2.20313 z" /><path
       inkscape:connector-curvature="0"
       id="path3565"
       style="fill:#000000;fill-opacity:1;fill-rule:nonzero;stroke:none"
       d="m 46.1949,10.266 1.93008,0 0,5.65195 -1.93008,0 0,-5.65195 z" /><path
       inkscape:connector-curvature="0"
       id="path3567"
       style="fill:#000000;fill-opacity:1;fill-rule:nonzero;stroke:none"
       d="m 106.57,58.6672 3.30508,0 0,2.93789 -3.30508,0 0,-2.93789 z" /><path
       inkscape:connector-curvature="0"
       id="path3569"
       style="fill:#000000;fill-opacity:1;fill-rule:nonzero;stroke:none"
       d="m 118.195,58.6672 3.30508,0 0,2.93789 -3.30508,0 0,-2.93789 z" /><path
       inkscape:connector-curvature="0"
       id="path3571"
       style="fill:#000000;fill-opacity:1;fill-rule:nonzero;stroke:none"
       d="m 101.555,65.7262 3.30508,0 0,3.67578 -3.30508,0 0,-3.67578 z" /><path
       inkscape:connector-curvature="0"
       id="path3573"
       style="fill:#000000;fill-opacity:1;fill-rule:nonzero;stroke:none"
       d="m 101.555,74.7969 3.30508,0 0,3.67617 -3.30508,0 0,-3.67617 z" /><path
       inkscape:connector-curvature="0"
       id="path3575"
       style="fill:#000000;fill-opacity:1;fill-rule:nonzero;stroke:none"
       d="m 122.316,71.5 2.20313,0 0,0.917969 -2.20313,0 0,-0.917969 z" /><path
       inkscape:connector-curvature="0"
       id="path3577"
       style="fill:#000000;fill-opacity:1;fill-rule:nonzero;stroke:none"
       d="m 122.316,67.2461 2.20313,0 0,0.917969 -2.20313,0 0,-0.917969 z" /><path
       inkscape:connector-curvature="0"
       id="path3579"
       style="fill:#000000;fill-opacity:1;fill-rule:nonzero;stroke:none"
       d="m 122.316,75.75 2.20313,0 0,0.917969 -2.20313,0 0,-0.917969 z" /><path
       inkscape:connector-curvature="0"
       id="path3581"
       style="fill:#000000;fill-opacity:1;fill-rule:nonzero;stroke:none"
       d="m 110.977,67.2461 2.20313,0 0,0.917969 -2.20313,0 0,-0.917969 z" /><path
       inkscape:connector-curvature="0"
       id="path3583"
       style="fill:#000000;fill-opacity:1;fill-rule:nonzero;stroke:none"
       d="m 110.977,75.75 2.20313,0 0,0.917969 -2.20313,0 0,-0.917969 z" /><path
       inkscape:connector-curvature="0"
       id="path3585"
       style="fill:#000000;fill-opacity:1;fill-rule:nonzero;stroke:none"
       d="m 112.938,70.9922 5.65195,0 0,1.92969 -5.65195,0 0,-1.92969 z" /><path
       inkscape:connector-curvature="0"
       id="path3587"
       style="fill:#000000;fill-opacity:1;fill-rule:nonzero;stroke:none"
       d="m 82.732801,116.81711 2.859308,0 0,0.45469 -2.859308,0 0,-0.45469 z" /><path
       inkscape:connector-curvature="0"
       id="path3589"
       style="fill:#000000;fill-opacity:1;fill-rule:nonzero;stroke:none"
       d="m 82.732801,118.66107 2.859308,0 0,0.45516 -2.859308,0 0,-0.45516 z" /><path
       inkscape:connector-curvature="0"
       id="path3591"
       style="fill:#000000;fill-opacity:1;fill-rule:nonzero;stroke:none"
       d="m 82.732801,120.50072 2.859308,0 0,0.45937 -2.859308,0 0,-0.45937 z" /><path
       inkscape:connector-curvature="0"
       id="path3593"
       style="fill:#000000;fill-opacity:1;fill-rule:nonzero;stroke:none"
       d="m 82.732801,122.34468 2.859308,0 0,0.45984 -2.859308,0 0,-0.45984 z" /><path
       inkscape:connector-curvature="0"
       id="path3595"
       style="fill:#000000;fill-opacity:1;fill-rule:nonzero;stroke:none"
       d="m 82.732801,114.97372 2.859308,0 0,0.45937 -2.859308,0 0,-0.45937 z" /><path
       inkscape:connector-curvature="0"
       id="path3597"
       style="fill:#000000;fill-opacity:1;fill-rule:nonzero;stroke:none"
       d="m 82.732801,113.13407 2.859308,0 0,0.45516 -2.859308,0 0,-0.45516 z" /><path
       inkscape:connector-curvature="0"
       id="path3599"
       style="fill:#000000;fill-opacity:1;fill-rule:nonzero;stroke:none"
       d="m 82.732801,111.28972 2.859308,0 0,0.45937 -2.859308,0 0,-0.45937 z" /><path
       inkscape:connector-curvature="0"
       id="path3601"
       style="fill:#000000;fill-opacity:1;fill-rule:nonzero;stroke:none"
       d="m 65.155707,116.81711 2.867396,0 0,0.45469 -2.867396,0 0,-0.45469 z" /><path
       inkscape:connector-curvature="0"
       id="path3603"
       style="fill:#000000;fill-opacity:1;fill-rule:nonzero;stroke:none"
       d="m 65.155707,118.66107 2.867396,0 0,0.45516 -2.867396,0 0,-0.45516 z" /><path
       inkscape:connector-curvature="0"
       id="path3605"
       style="fill:#000000;fill-opacity:1;fill-rule:nonzero;stroke:none"
       d="m 65.155707,120.50072 2.867396,0 0,0.45937 -2.867396,0 0,-0.45937 z" /><path
       inkscape:connector-curvature="0"
       id="path3607"
       style="fill:#000000;fill-opacity:1;fill-rule:nonzero;stroke:none"
       d="m 65.155707,122.34468 2.867396,0 0,0.45984 -2.867396,0 0,-0.45984 z" /><path
       inkscape:connector-curvature="0"
       id="path3609"
       style="fill:#000000;fill-opacity:1;fill-rule:nonzero;stroke:none"
       d="m 65.155707,114.97372 2.867396,0 0,0.45937 -2.867396,0 0,-0.45937 z" /><path
       inkscape:connector-curvature="0"
       id="path3611"
       style="fill:#000000;fill-opacity:1;fill-rule:nonzero;stroke:none"
       d="m 65.155707,113.13407 2.867396,0 0,0.45516 -2.867396,0 0,-0.45516 z" /><path
       inkscape:connector-curvature="0"
       id="path3613"
       style="fill:#000000;fill-opacity:1;fill-rule:nonzero;stroke:none"
       d="m 65.155707,111.28972 2.867396,0 0,0.45937 -2.867396,0 0,-0.45937 z" /><path
       inkscape:connector-curvature="0"
       id="path3615"
       style="fill:#000000;fill-opacity:1;fill-rule:nonzero;stroke:none"
       d="m 71.898,103.356 2.20703,0 0,2.20313 -2.20703,0 0,-2.20313 z" /><path
       inkscape:connector-curvature="0"
       id="path3617"
       style="fill:#000000;fill-opacity:1;fill-rule:nonzero;stroke:none"
       d="m 77.5699,103.356 2.20313,0 0,2.20313 -2.20313,0 0,-2.20313 z" /><path
       inkscape:connector-curvature="0"
       id="path3619"
       style="fill:#000000;fill-opacity:1;fill-rule:nonzero;stroke:none"
       d="m 57.0738,107.313 2.20313,0 0,2.20313 -2.20313,0 0,-2.20313 z" /><path
       inkscape:connector-curvature="0"
       id="path3621"
       style="fill:#000000;fill-opacity:1;fill-rule:nonzero;stroke:none"
       d="m 51.402,107.313 2.20313,0 0,2.20313 -2.20313,0 0,-2.20313 z" /><path
       inkscape:connector-curvature="0"
       id="path3623"
       style="fill:#000000;fill-opacity:1;fill-rule:nonzero;stroke:none"
       d="m 57.0469,114.707 2.20703,0 0,2.20313 -2.20703,0 0,-2.20313 z" /><path
       inkscape:connector-curvature="0"
       id="path3625"
       style="fill:#000000;fill-opacity:1;fill-rule:nonzero;stroke:none"
       d="m 51.3789,114.707 2.20313,0 0,2.20313 -2.20313,0 0,-2.20313 z" /><path
       inkscape:connector-curvature="0"
       id="path3627"
       style="fill:#000000;fill-opacity:1;fill-rule:nonzero;stroke:none"
       d="m 51.359,121.754 2.20313,0 0,2.20313 -2.20313,0 0,-2.20313 z" /><path
       inkscape:connector-curvature="0"
       id="path3629"
       style="fill:#000000;fill-opacity:1;fill-rule:nonzero;stroke:none"
       d="m 57.0309,121.754 2.20313,0 0,2.20313 -2.20313,0 0,-2.20313 z" /><path
       inkscape:connector-curvature="0"
       id="path3631"
       style="fill:#000000;fill-opacity:1;fill-rule:nonzero;stroke:none"
       d="m 116.461,85.0461 2.7582,0 0,2.93789 -2.7582,0 0,-2.93789 z" /><path
       inkscape:connector-curvature="0"
       id="path3633"
       style="fill:#000000;fill-opacity:1;fill-rule:nonzero;stroke:none"
       d="m 107.379,88.5352 2.20703,0 0,2.20273 -2.20703,0 0,-2.20273 z" /><path
       inkscape:connector-curvature="0"
       id="path3635"
       style="fill:#000000;fill-opacity:1;fill-rule:nonzero;stroke:none"
       d="m 107.379,82.8629 2.20703,0 0,2.20313 -2.20703,0 0,-2.20313 z" /><path
       inkscape:connector-curvature="0"
       id="path3637"
       style="fill:#000000;fill-opacity:1;fill-rule:nonzero;stroke:none"
       d="m 37.6559,26.368 2.7582,0 0,2.94102 -2.7582,0 0,-2.94102 z" /><path
       inkscape:connector-curvature="0"
       id="path3639"
       style="fill:#000000;fill-opacity:1;fill-rule:nonzero;stroke:none"
       d="m 28.582,29.8559 2.20313,0 0,2.20313 -2.20313,0 0,-2.20313 z" /><path
       inkscape:connector-curvature="0"
       id="path3641"
       style="fill:#000000;fill-opacity:1;fill-rule:nonzero;stroke:none"
       d="m 28.582,24.1879 2.20313,0 0,2.20313 -2.20313,0 0,-2.20313 z" /><path
       inkscape:connector-curvature="0"
       id="path3643"
       style="fill:#000000;fill-opacity:1;fill-rule:nonzero;stroke:none"
       d="m 16.1129,91 2.7582,0 0,2.93789 -2.7582,0 0,-2.93789 z" /><path
       inkscape:connector-curvature="0"
       id="path3645"
       style="fill:#000000;fill-opacity:1;fill-rule:nonzero;stroke:none"
       d="m 7.03906,94.4852 2.20313,0 0,2.20273 -2.20313,0 0,-2.20273 z" /><path
       inkscape:connector-curvature="0"
       id="path3647"
       style="fill:#000000;fill-opacity:1;fill-rule:nonzero;stroke:none"
       d="m 7.03906,88.8172 2.20313,0 0,2.20273 -2.20313,0 0,-2.20273 z" /></g></svg>