%
M48
M72
T01C0.0236
T02C0.0315
T03C0.0400
T04C0.0630
T05C0.1300
%
T01
X7314Y4004
X15346Y11917
X16054Y14083
X18102Y12744
X13692Y16287
X12866Y16996
X14204Y18295
X14086Y18846
X15700Y18768
X16133Y19083
X11125Y16887
X5976Y15875
X5385Y14870
X5428Y12907
T02
X5447Y17455
X4029Y17455
X16474Y16441
X17891Y16441
X4995Y3759
X4995Y2342
T03
X14902Y14004
X15002Y15004
X14902Y16004
X15002Y17004
X14902Y18004
X15002Y19004
X8146Y17970
X8046Y16970
X7098Y16900
X7098Y18040
X8046Y18970
T04
X8259Y12823
X9362Y12823
X10464Y12823
X11566Y12823
X12669Y12823
X12708Y11720
X13810Y11720
X14558Y10618
X13850Y9516
X12747Y9516
X11645Y9516
X11606Y10618
X10503Y10618
X9401Y10618
X8299Y10618
X8338Y9516
X9440Y9516
X10543Y9516
X10543Y8413
X9440Y8413
X8338Y8413
X7236Y9516
X6448Y10618
X7196Y11720
X8299Y11720
X9401Y11720
X10503Y11720
X11606Y11720
X12708Y10618
X12747Y8413
X11645Y8413
T05
X2179Y2427
X2218Y18805
X18706Y18829
X18706Y2372
M30
